<?xml version="1.0" standalone="no"?>
<!DOCTYPE svg PUBLIC "-//W3C//DTD SVG 1.1//EN" "http://www.w3.org/Graphics/SVG/1.1/DTD/svg11.dtd" >
<svg xmlns="http://www.w3.org/2000/svg" xmlns:xlink="http://www.w3.org/1999/xlink" version="1.1">
<metadata>
Created by FontForge 20201107 at Wed Sep 13 16:31:09 2023
 By 
Copyright 2021 The Pixelify Sans Project Authors (https://github.com/eifetx/Pixelify-Sans)
</metadata>
<defs>
<font id="PixelifySans-SemiBold" horiz-adv-x="597" >
  <font-face 
    font-family="Pixelify Sans SemiBold"
    font-weight="600"
    font-stretch="normal"
    units-per-em="1000"
    panose-1="0 0 0 0 0 0 0 0 0 0"
    ascent="800"
    descent="-200"
    x-height="461"
    cap-height="636"
    bbox="-39 -275 1134 921"
    underline-thickness="50"
    underline-position="-100"
    unicode-range="U+0020-FB06"
  />
<missing-glyph horiz-adv-x="718" 
d="M100 -142v817h518v-817h-518zM218 -24h282v581h-282v-581z" />
    <glyph glyph-name="f_f" unicode="ff" horiz-adv-x="954" 
d="M61 -11v559h89v88h296v-88h61v88h297v-88h89v-124h-119v87h-238v-137h178v-123h-178v-262h-119v522h-238v-137h179v-123h-179v-262h-118z" />
    <glyph glyph-name="fi" unicode="fi" 
d="M61 -11v559h89v88h296v-88h90v-124h-119v87h-238v-137h357v-385h-119v262h-238v-262h-118z" />
    <glyph glyph-name="fl" unicode="fl" 
d="M61 -11v559h89v88h296v-88h90v-559h-119v522h-238v-137h179v-123h-179v-262h-118z" />
    <glyph glyph-name="f_f_i" unicode="ffi" horiz-adv-x="954" 
d="M61 -11v559h89v88h296v-88h61v88h297v-88h89v-124h-119v87h-238v-137h357v-385h-120v262h-237v-262h-119v522h-238v-137h179v-123h-179v-262h-118z" />
    <glyph glyph-name="f_f_l" unicode="ffl" horiz-adv-x="954" 
d="M61 -11v559h89v88h296v-88h61v88h297v-88h89v-559h-119v522h-238v-137h178v-123h-178v-262h-119v522h-238v-137h179v-123h-179v-262h-118z" />
    <glyph glyph-name=".notdef" horiz-adv-x="718" 
d="M100 -142v817h518v-817h-518zM218 -24h282v581h-282v-581z" />
    <glyph glyph-name=".null" horiz-adv-x="0" 
 />
    <glyph glyph-name="nonmarkingreturn" horiz-adv-x="333" 
 />
    <glyph glyph-name="space" unicode=" " horiz-adv-x="200" 
 />
    <glyph glyph-name="exclam" unicode="!" horiz-adv-x="240" 
d="M61 163v473h118v-473h-118zM61 -11v124h118v-124h-118z" />
    <glyph glyph-name="quotedbl" unicode="&#x22;" horiz-adv-x="479" 
d="M300 424v49l15 12v26h-60v125h120v-88h42v-80h-42v-44h-75zM105 424v47l15 14v26h-59v125h118v-88h44v-80h-44v-44h-74z" />
    <glyph glyph-name="numbersign" unicode="#" horiz-adv-x="687" 
d="M150 -11v86h-89v125h89v137h-89v124h89v175h118v-175h149v175h119v-175h90v-124h-90v-137h90v-125h-90v-86h-119v86h-149v-86h-118zM268 200h149v137h-149v-137z" />
    <glyph glyph-name="dollar" unicode="$" 
d="M247 -99v88h-97v86h-89v125h118v-87h238v138h-267v86h-89v211h89v88h97v87h120v-87h79v-88h90v-124h-119v87h-238v-137h267v-86h90v-213h-90v-86h-79v-88h-120z" />
    <glyph glyph-name="percent" unicode="%" horiz-adv-x="873" 
d="M108 -11v124h91v87h88v88h91v86h88v87h89v87h90v88h118v-125h-88v-87h-91v-87h-89v-86h-88v-88h-90v-88h-89v-86h-120zM150 337v87h-89v124h89v88h118v-88h90v-124h-90v-87h-118zM604 -11v86h-89v125h89v88h119v-88h89v-125h-89v-86h-119z" />
    <glyph glyph-name="ampersand" unicode="&#x26;" horiz-adv-x="687" 
d="M150 -11v86h-89v125h89v88h88v49h-88v87h-89v124h89v88h296v-88h90v-124h-90v-87h-88v-49h88v-88h91v-87h89v-124h-119v86h-61v-86h-296zM179 113h238v50h-89v88h-60v-88h-89v-50zM268 374h60v87h89v50h-238v-50h89v-87z" />
    <glyph glyph-name="quotesingle" unicode="'" horiz-adv-x="284" 
d="M105 424v36l15 25v26h-59v125h118v-88h44v-80h-44v-44h-74z" />
    <glyph glyph-name="parenleft" unicode="(" horiz-adv-x="389" 
d="M238 -154v177h-88v174h-89v211h89v176h88v173h120v-211h-91v-175h-88v-137h89v-176h90v-212h-120z" />
    <glyph glyph-name="parenright" unicode=")" horiz-adv-x="389" 
d="M31 -154v212h89v176h89v137h-89v175h-89v211h118v-173h89v-176h90v-211h-90v-174h-89v-177h-118z" />
    <glyph glyph-name="asterisk" unicode="*" horiz-adv-x="284" 
d="M61 424v70l15 5v16l-15 2v74h44v45h74v-45h44v-74l-15 -4v-14l15 -22v-53h-73v44h-16v-44h-73z" />
    <glyph glyph-name="plus" unicode="+" horiz-adv-x="600" 
d="M240 84v164h-178v124h178v184h119v-184h179v-124h-179v-164h-119z" />
    <glyph glyph-name="comma" unicode="," horiz-adv-x="284" 
d="M105 -87v48l15 14v25h-59v125h118v-88h44v-79h-44v-45h-74z" />
    <glyph glyph-name="hyphen" unicode="-" horiz-adv-x="356" 
d="M26 188v125h297v-125h-297z" />
    <glyph glyph-name="period" unicode="." horiz-adv-x="240" 
d="M61 0v125h118v-125h-118z" />
    <glyph glyph-name="slash" unicode="/" horiz-adv-x="542" 
d="M58 -12l318 643h107l-318 -643h-107z" />
    <glyph glyph-name="zero" unicode="0" 
d="M150 -11v86h-89v473h89v88h296v-88h90v-473h-90v-86h-296zM179 113h238v398h-238v-398z" />
    <glyph glyph-name="one" unicode="1" horiz-adv-x="419" 
d="M238 -11v522h-59v-87h-118v124h89v88h118v-88h90v-559h-120z" />
    <glyph glyph-name="two" unicode="2" 
d="M150 -11v86h-89v213h89v86h267v137h-238v-87h-118v124h89v88h296v-88h90v-211h-90v-86h-267v-138h238v87h119v-125h-90v-86h-296z" />
    <glyph glyph-name="three" unicode="3" 
d="M150 -11v86h-89v125h118v-87h238v138h-267v123h267v137h-238v-87h-118v124h89v88h296v-88h90v-211h-90v-49h90v-213h-90v-86h-296z" />
    <glyph glyph-name="four" unicode="4" 
d="M417 -11v174h-356v211h89v87h88v87h90v88h208v-647h-119zM179 288h238v223h-59v-87h-91v-87h-88v-49z" />
    <glyph glyph-name="five" unicode="5" 
d="M150 -11v86h-89v125h118v-87h238v50h-179v88h-88v86h-89v211h89v88h296v-88h90v-211h-119v174h-238v-137h89v-86h178v-88h90v-125h-90v-86h-296z" />
    <glyph glyph-name="six" unicode="6" 
d="M150 -11v86h-89v473h89v88h296v-88h90v-124h-119v87h-238v-137h267v-86h90v-213h-90v-86h-296zM179 113h238v138h-238v-138z" />
    <glyph glyph-name="seven" unicode="7" 
d="M417 -11v522h-238v-87h-118v124h89v88h296v-88h90v-559h-119z" />
    <glyph glyph-name="eight" unicode="8" 
d="M150 -11v86h-89v213h89v49h-89v211h89v88h296v-88h90v-211h-90v-49h90v-213h-90v-86h-296zM179 113h238v138h-238v-138zM179 374h238v137h-238v-137z" />
    <glyph glyph-name="nine" unicode="9" 
d="M150 -11v86h-89v125h118v-87h238v138h-267v86h-89v211h89v88h296v-88h90v-473h-90v-86h-296zM179 374h238v137h-238v-137z" />
    <glyph glyph-name="colon" unicode=":" horiz-adv-x="240" 
d="M61 78v125h118v-125h-118zM61 250v124h118v-124h-118z" />
    <glyph glyph-name="semicolon" unicode=";" horiz-adv-x="284" 
d="M105 -8v49l15 12v25h-59v125h118v-87h44v-80h-44v-44h-74zM61 250v124h118v-124h-118z" />
    <glyph glyph-name="less" unicode="&#x3c;" horiz-adv-x="600" 
d="M419 -103v88h-89v87h-90v87h-89v88h-89v123h90v87h88v88h90v87h89v87h119v-125h-90v-86h-88v-88h-91v-87h-88v-49h88v-88h91v-86h88v-88h90v-125h-119z" />
    <glyph glyph-name="equal" unicode="=" horiz-adv-x="600" 
d="M104 293v125h393v-125h-393zM104 107v125h393v-125h-393z" />
    <glyph glyph-name="greater" unicode="&#x3e;" horiz-adv-x="600" 
d="M62 -103v125h90v88h89v86h89v88h90v49h-90v87h-89v88h-90v86h-89v125h119v-87h89v-87h89v-88h88v-87h91v-123h-90v-88h-89v-87h-89v-87h-89v-88h-119z" />
    <glyph glyph-name="question" unicode="?" 
d="M238 163v211h179v137h-238v-174h-118v211h89v88h296v-88h90v-211h-90v-86h-88v-88h-120zM238 -11v124h120v-124h-120z" />
    <glyph glyph-name="at" unicode="@" horiz-adv-x="644" 
d="M150 73v46h-45v31h-32v246h32v44h45v32h255v-32h31v-44h46v-44h52v-114h-46v-45h-32v-31h-78v25h-24v-25h-143v25h-29v135h29v25h156v-25h27v-111h32v52h46v64h-39v44h-45v44h-228v-44h-26v-209h46v-44h180v-45h-210zM240 211h97v85h-97v-85z" />
    <glyph glyph-name="A" unicode="A" 
d="M61 -11v472h89v87h88v88h120v-88h88v-87h90v-472h-119v174h-238v-174h-118zM179 288h238v136h-89v87h-60v-87h-89v-136z" />
    <glyph glyph-name="B" unicode="B" 
d="M150 -11v86h-89v473h89v88h296v-88h90v-211h-90v-49h90v-213h-90v-86h-296zM179 113h238v138h-179v123h179v137h-238v-398z" />
    <glyph glyph-name="C" unicode="C" 
d="M150 -11v86h-89v473h89v88h296v-88h90v-211h-119v174h-238v-398h238v175h119v-213h-90v-86h-296z" />
    <glyph glyph-name="D" unicode="D" 
d="M61 -11v647h297v-88h88v-87h90v-298h-90v-88h-88v-86h-297zM179 113h149v87h89v224h-89v87h-149v-398z" />
    <glyph glyph-name="E" unicode="E" 
d="M150 -11v86h-89v473h89v88h296v-88h90v-124h-119v87h-238v-137h179v-123h-179v-138h238v87h119v-125h-90v-86h-296z" />
    <glyph glyph-name="F" unicode="F" 
d="M61 -11v647h385v-88h90v-124h-119v87h-238v-137h179v-123h-179v-262h-118z" />
    <glyph glyph-name="G" unicode="G" 
d="M150 -11v86h-89v473h89v88h296v-88h90v-211h-119v174h-238v-398h238v50h-89v88h-90v123h120v-86h178v-213h-90v-86h-296z" />
    <glyph glyph-name="H" unicode="H" 
d="M61 -11v647h118v-262h59v87h120v-87h59v262h119v-647h-119v262h-238v-262h-118z" />
    <glyph glyph-name="I" unicode="I" horiz-adv-x="419" 
d="M61 -11v124h89v398h-89v125h297v-125h-90v-398h90v-124h-297z" />
    <glyph glyph-name="J" unicode="J" 
d="M150 -11v86h-89v213h118v-175h238v398h-267v125h296v-88h90v-473h-90v-86h-296z" />
    <glyph glyph-name="K" unicode="K" 
d="M61 -11v559h89v88h118v-125h-89v-137h59v87h91v87h88v88h119v-125h-90v-87h-88v-87h-90v-49h90v-88h88v-87h90v-124h-119v86h-88v88h-91v88h-59v-262h-118z" />
    <glyph glyph-name="L" unicode="L" 
d="M150 -11v86h-89v561h118v-523h238v87h119v-125h-90v-86h-296z" />
    <glyph glyph-name="M" unicode="M" horiz-adv-x="775" 
d="M61 -11v559h89v88h118v-88h90v-174h59v174h90v88h119v-88h88v-559h-117v522h-61v-174h-90v-262h-118v262h-90v174h-59v-522h-118z" />
    <glyph glyph-name="N" unicode="N" 
d="M61 -11v647h118v-88h88v-87h91v-261h59v436h119v-647h-119v86h-88v88h-91v261h-59v-435h-118z" />
    <glyph glyph-name="O" unicode="O" 
d="M150 -11v86h-89v473h89v88h296v-88h90v-473h-90v-86h-296zM179 113h238v398h-238v-398z" />
    <glyph glyph-name="P" unicode="P" 
d="M61 -11v559h89v88h296v-88h90v-297h-90v-88h-267v-174h-118zM179 288h238v223h-238v-223z" />
    <glyph glyph-name="Q" unicode="Q" 
d="M328 -185v86h-90v88h-88v86h-89v473h89v88h296v-88h90v-473h-90v-86h-88v-51h88v-123h-118zM179 113h238v398h-238v-398z" />
    <glyph glyph-name="R" unicode="R" 
d="M61 -11v559h89v88h296v-88h90v-297h-90v-88h-43v-50h88v-124h-117v86h-91v88h-104v-174h-118zM179 288h238v223h-238v-223z" />
    <glyph glyph-name="S" unicode="S" 
d="M150 -11v86h-89v125h118v-87h238v138h-267v86h-89v211h89v88h296v-88h90v-124h-119v87h-238v-137h267v-86h90v-213h-90v-86h-296z" />
    <glyph glyph-name="T" unicode="T" 
d="M238 -11v522h-59v-87h-118v124h89v88h296v-88h90v-124h-119v87h-59v-522h-120z" />
    <glyph glyph-name="U" unicode="U" 
d="M150 -11v86h-89v561h118v-523h238v523h119v-561h-90v-86h-296z" />
    <glyph glyph-name="V" unicode="V" 
d="M238 -11v86h-88v176h-89v385h118v-348h89v-175h60v175h89v348h119v-385h-90v-176h-88v-86h-120z" />
    <glyph glyph-name="W" unicode="W" horiz-adv-x="775" 
d="M150 -11v86h-89v561h118v-523h59v175h90v260h118v-260h90v-175h61v523h117v-561h-88v-86h-119v86h-90v176h-59v-176h-90v-86h-118z" />
    <glyph glyph-name="X" unicode="X" 
d="M61 -11v124h89v175h88v49h-88v174h-89v125h118v-88h89v-174h60v174h89v88h119v-125h-90v-174h-88v-49h88v-175h90v-124h-119v86h-89v176h-60v-176h-89v-86h-118z" />
    <glyph glyph-name="Y" unicode="Y" 
d="M238 -11v348h-88v87h-89v212h118v-175h89v-87h60v87h89v175h119v-212h-90v-87h-88v-348h-120z" />
    <glyph glyph-name="Z" unicode="Z" 
d="M150 -11v86h-89v213h89v86h267v137h-238v-87h-118v212h385v-88h90v-211h-90v-86h-267v-138h238v87h119v-211h-386z" />
    <glyph glyph-name="bracketleft" unicode="[" horiz-adv-x="389" 
d="M150 -58v87h-89v560h89v86h208v-124h-179v-484h179v-125h-208z" />
    <glyph glyph-name="backslash" unicode="\" horiz-adv-x="542" 
d="M376 -12l-318 643h107l318 -643h-107z" />
    <glyph glyph-name="bracketright" unicode="]" horiz-adv-x="389" 
d="M31 -58v125h178v484h-178v124h207v-86h90v-560h-90v-87h-207z" />
    <glyph glyph-name="asciicircum" unicode="^" horiz-adv-x="284" 
d="M61 511v80h44v45h74v-45h44v-80h-73v44h-16v-44h-73z" />
    <glyph glyph-name="underscore" unicode="_" horiz-adv-x="456" 
d="M61 0v125h335v-125h-335z" />
    <glyph glyph-name="grave" unicode="`" horiz-adv-x="283" 
d="M149 515v42h-45v44h-44v81h73v-44h45v-43h45v-80h-74z" />
    <glyph glyph-name="a" unicode="a" horiz-adv-x="687" 
d="M150 -11v86h-89v299h89v87h296v-87h91v-261h89v-124h-119v86h-61v-86h-296zM179 113h238v224h-238v-224z" />
    <glyph glyph-name="b" unicode="b" 
d="M150 -11v86h-89v561h118v-175h267v-87h90v-299h-90v-86h-296zM179 113h238v224h-238v-224z" />
    <glyph glyph-name="c" unicode="c" 
d="M150 -11v86h-89v299h89v87h296v-87h90v-123h-119v86h-238v-224h238v87h119v-125h-90v-86h-296z" />
    <glyph glyph-name="d" unicode="d" 
d="M150 -11v86h-89v299h89v87h268v175h119v-561h-91v-86h-296zM179 113h238v224h-238v-224z" />
    <glyph glyph-name="e" unicode="e" 
d="M150 -11v86h-89v299h89v87h296v-87h90v-123h-119v86h-238v-49h179v-125h-179v-50h238v88h119v-125h-90v-87h-296z" />
    <glyph glyph-name="f" unicode="f" 
d="M61 -11v559h89v88h296v-88h90v-124h-119v87h-238v-137h179v-123h-179v-262h-118z" />
    <glyph glyph-name="g" unicode="g" 
d="M150 -186v87h-89v124h118v-87h239v137h-268v88h-89v211h89v87h297v-87h89v-473h-89v-87h-297zM179 200h239v137h-239v-137z" />
    <glyph glyph-name="h" unicode="h" 
d="M61 -11v647h118v-262h59v87h208v-87h90v-385h-119v348h-149v-86h-89v-262h-118z" />
    <glyph glyph-name="i" unicode="i" horiz-adv-x="240" 
d="M61 -11v472h118v-472h-118zM61 511v125h118v-125h-118z" />
    <glyph glyph-name="j" unicode="j" horiz-adv-x="508" 
d="M150 -12v87h-89v125h118v-87h149v348h119v-386h-89v-87h-208z" />
    <glyph glyph-name="k" unicode="k" 
d="M61 -11v647h118v-348h59v86h179v87h119v-124h-90v-86h-178v-51h178v-87h90v-124h-119v86h-179v88h-59v-174h-118z" />
    <glyph glyph-name="l" unicode="l" horiz-adv-x="240" 
d="M61 -11v647h118v-647h-118z" />
    <glyph glyph-name="m" unicode="m" horiz-adv-x="775" 
d="M61 -11v472h297v-87h59v87h209v-87h88v-385h-117v348h-151v-348h-118v348h-149v-348h-118z" />
    <glyph glyph-name="n" unicode="n" 
d="M61 -11v472h385v-87h90v-385h-119v348h-238v-348h-118z" />
    <glyph glyph-name="o" unicode="o" 
d="M150 -11v86h-89v299h89v87h296v-87h90v-299h-90v-86h-296zM179 113h238v224h-238v-224z" />
    <glyph glyph-name="p" unicode="p" 
d="M61 -181v555h89v87h296v-87h90v-299h-90v-86h-267v-170h-118zM179 113h238v224h-238v-224z" />
    <glyph glyph-name="q" unicode="q" 
d="M417 -181v170h-267v86h-89v299h89v87h296v-87h90v-555h-119zM179 113h238v224h-238v-224z" />
    <glyph glyph-name="r" unicode="r" 
d="M61 -11v385h89v87h296v-87h90v-123h-119v86h-238v-348h-118z" />
    <glyph glyph-name="s" unicode="s" 
d="M61 -11v124h356v50h-267v88h-89v123h89v87h386v-124h-357v-49h267v-88h90v-125h-90v-86h-385z" />
    <glyph glyph-name="t" unicode="t" horiz-adv-x="687" 
d="M238 -11v86h-88v262h-89v124h89v175h118v-175h268v-124h-268v-224h239v87h119v-125h-90v-86h-298z" />
    <glyph glyph-name="u" unicode="u" 
d="M150 -11v86h-89v386h118v-348h238v348h119v-386h-90v-86h-296z" />
    <glyph glyph-name="v" unicode="v" horiz-adv-x="587" 
d="M229 -11v86h-90v176h-89v210h118v-173h89v-175h61v175h88v173h120v-210h-91v-176h-88v-86h-118z" />
    <glyph glyph-name="w" unicode="w" horiz-adv-x="775" 
d="M61 -11v472h118v-348h149v348h118v-348h151v348h117v-386h-88v-86h-209v86h-59v-86h-297z" />
    <glyph glyph-name="x" unicode="x" 
d="M61 -11v124h89v87h88v51h-88v86h-89v124h118v-87h89v-86h60v86h89v87h119v-124h-90v-86h-88v-51h88v-87h90v-124h-119v86h-89v88h-60v-88h-89v-86h-118z" />
    <glyph glyph-name="y" unicode="y" 
d="M150 -186v87h-89v124h118v-87h239v137h-268v88h-89v298h118v-261h239v261h118v-560h-89v-87h-297z" />
    <glyph glyph-name="z" unicode="z" 
d="M61 -11v124h89v87h88v88h90v49h-267v124h475v-124h-90v-86h-88v-88h-90v-50h268v-124h-475z" />
    <glyph glyph-name="braceleft" unicode="{" horiz-adv-x="477" 
d="M209 -103v88h-89v262h-89v123h89v262h89v87h119v-87h88v-124h-118v86h-60v-261h-89v-49h89v-262h60v88h118v-125h-88v-88h-119z" />
    <glyph glyph-name="bar" unicode="|" horiz-adv-x="240" 
d="M61 -11v647h118v-647h-118z" />
    <glyph glyph-name="braceright" unicode="}" horiz-adv-x="477" 
d="M119 -103v88h-88v125h117v-88h61v262h88v49h-88v261h-61v-86h-117v124h88v87h119v-87h88v-262h90v-123h-89v-262h-89v-88h-119z" />
    <glyph glyph-name="asciitilde" unicode="~" horiz-adv-x="600" 
d="M169 190v127h167v-44h21v44h74v-127h-168v45h-21v-45h-73z" />
    <glyph glyph-name="uni00A0" unicode="&#xa0;" horiz-adv-x="200" 
 />
    <glyph glyph-name="exclamdown" unicode="&#xa1;" horiz-adv-x="240" 
d="M61 -11v472h118v-472h-118zM61 512v124h118v-124h-118z" />
    <glyph glyph-name="cent" unicode="&#xa2;" 
d="M235 0v95h-85v86h-89v299h89v87h85v95h127v-95h84v-87h90v-124h-119v86h-238v-223h238v86h119v-124h-90v-86h-84v-95h-127z" />
    <glyph glyph-name="sterling" unicode="&#xa3;" horiz-adv-x="686" 
d="M61 -11v124h89v435h88v88h298v-88h89v-124h-118v87h-239v-137h178v-123h-178v-138h239v87h118v-125h-89v-86h-475z" />
    <glyph glyph-name="currency" unicode="&#xa4;" horiz-adv-x="537" 
d="M184 182v45h-45v160h45v46h168v-46h45v-160h-45v-45h-168zM60 137v70h75v-70h-75zM60 407v71h75v-71h-75zM214 252h108v110h-108v-110zM400 137v70h76v-70h-76zM400 407v71h76v-71h-76z" />
    <glyph glyph-name="yen" unicode="&#xa5;" horiz-adv-x="613" 
d="M240 -12v74h-90v87h90v45h-90v89h90v60h-90v88h-90v203h120v-178h89v-89h61v89h90v178h120v-203h-91v-88h-89v-60h89v-89h-89v-45h89v-87h-89v-74h-120z" />
    <glyph glyph-name="section" unicode="&#xa7;" 
d="M150 -11v86h-89v213h89v49h-89v211h89v88h296v-88h90v-124h-119v87h-238v-137h267v-86h90v-125h-357v-50h357v-124h-386z" />
    <glyph glyph-name="dieresis" unicode="&#xa8;" horiz-adv-x="300" 
d="M-13 497v125h119v-125h-119zM196 497v125h118v-125h-118z" />
    <glyph glyph-name="copyright" unicode="&#xa9;" horiz-adv-x="442" 
d="M115 366v25h-45v188h45v25h194v-25h46v-188h-46v-25h-194zM124 417h176v137h-176v-137zM174 435v11h-11v76h11v12h81v-12h10v-35h-33v9h-35v-25h35v12h33v-37h-10v-11h-81z" />
    <glyph glyph-name="ordfeminine" unicode="&#xaa;" horiz-adv-x="405" 
d="M106 399v43h-45v150h45v44h148v-44h45v-131h45v-62h-59v43h-31v-43h-148zM120 461h119v113h-119v-113zM254 306v63h-148v-63h148z" />
    <glyph glyph-name="guillemotleft" unicode="&#xab;" horiz-adv-x="878" 
d="M699 -103v88h-88v87h-90v87h-89v88h-89v123h89v87h89v88h90v87h88v87h119v-125h-90v-86h-88v-88h-89v-87h-90v-49h89v-88h90v-86h88v-88h90v-125h-119zM388 -103v88h-89v87h-90v87h-89v88h-89v123h89v87h89v88h89v87h90v87h118v-125h-90v-86h-89v-88h-89v-87h-89v-49h89
v-88h89v-86h89v-88h90v-125h-118z" />
    <glyph glyph-name="logicalnot" unicode="&#xac;" horiz-adv-x="600" 
d="M378 206v87h-274v125h393v-212h-119z" />
    <glyph glyph-name="registered" unicode="&#xae;" horiz-adv-x="442" 
d="M115 358v25h-45v200h45v25h212v-25h45v-200h-45v-25h-212zM144 423h154v120h-154v-120zM183 442v50h12v25h71v-18h12v-29h-33v12h-21v-40h-41z" />
    <glyph glyph-name="macron" unicode="&#xaf;" horiz-adv-x="300" 
d="M3 570v125h297v-125h-297z" />
    <glyph glyph-name="degree" unicode="&#xb0;" horiz-adv-x="330" 
d="M96 378v35h-35v142h35v35h137v-35h36v-142h-36v-35h-137zM125 450h79v68h-79v-68z" />
    <glyph glyph-name="plusminus" unicode="&#xb1;" horiz-adv-x="600" 
d="M239 155v113h-138v110h138v113h122v-113h139v-110h-139v-113h-122zM101 -7v111h399v-111h-399z" />
    <glyph glyph-name="uni00B2" unicode="&#xb2;" horiz-adv-x="397" 
d="M106 255v46h-46v116h46v46h139v98h-110v-46h-75v71h46v46h168v-46h46v-148h-46v-46h-139v-66h110v46h75v-71h-46v-46h-168z" />
    <glyph glyph-name="uni00B3" unicode="&#xb3;" horiz-adv-x="397" 
d="M107 257v47h-47v70h76v-45h108v66h-137v70h137v97h-108v-45h-76v70h47v47h166v-47h47v-148h-47v-19h47v-116h-47v-47h-166z" />
    <glyph glyph-name="acute" unicode="&#xb4;" horiz-adv-x="300" 
d="M60 520v80h44v43h46v45h73v-81h-45v-45h-44v-42h-74z" />
    <glyph glyph-name="uni00B5" unicode="&#xb5;" 
d="M61 -181v642h118v-348h238v348h119v-386h-90v-86h-267v-170h-118z" />
    <glyph glyph-name="paragraph" unicode="&#xb6;" horiz-adv-x="774" 
d="M417 -186v351h-267v87h-89v296h89v88h563v-125h-49v-697h-70v697h-107v-697h-70z" />
    <glyph glyph-name="periodcentered" unicode="&#xb7;" horiz-adv-x="240" 
d="M61 257v124h118v-124h-118z" />
    <glyph glyph-name="cedilla" unicode="&#xb8;" horiz-adv-x="300" 
d="M74 -193v44h-45v80h74v-43h75v18l-15 5v27h-45v88h103v-80h45v-39l15 -13v-43h-44v-44h-163z" />
    <glyph glyph-name="uni00B9" unicode="&#xb9;" horiz-adv-x="288" 
d="M152 285v269h-17v-45h-74v81h44v46h76v-46h46v-305h-75z" />
    <glyph glyph-name="ordmasculine" unicode="&#xba;" horiz-adv-x="360" 
d="M106 443v-43h148v43h45v150h-45v43h-148v-43h-45v-150h45zM120 574h119v-112h-119v112zM254 306v63h-148v-63h148z" />
    <glyph glyph-name="guillemotright" unicode="&#xbb;" horiz-adv-x="858" 
d="M322 -103v125h89v88h90v86h89v88h89v49h-89v87h-89v88h-89v86h-90v125h119v-87h89v-87h89v-88h90v-87h89v-123h-89v-88h-90v-87h-89v-87h-89v-88h-119zM10 -103v125h89v88h90v86h89v88h89v49h-89v87h-89v88h-89v86h-90v125h119v-87h89v-87h89v-88h89v-87h90v-123h-90v-88
h-89v-87h-89v-87h-89v-88h-119z" />
    <glyph glyph-name="onequarter" unicode="&#xbc;" horiz-adv-x="883" 
d="M214 -11v189h78v152h79v76h77v153h80v77h106v-190h-77v-77h-80v-152h-77v-76h-79v-152h-107zM152 285v269h-17v-45h-74v81h44v46h76v-46h46v-305h-75zM746 -12v89h-183v127h46v44h46v45h46v45h121v-350h-76zM669 159h77v98h-16v-46h-35v-15h-26v-37z" />
    <glyph glyph-name="onehalf" unicode="&#xbd;" horiz-adv-x="825" 
d="M166 -12v180h78v155h80v77h78v156h80v78h108v-180h-78v-79h-81v-155h-78v-77h-79v-155h-108zM152 290v273h-17v-46h-75v70h46v47h76v-47h47v-297h-77zM555 -13v45h-46v165h46v47h139v65h-109v-46h-76v71h46v46h168v-46h46v-116h-46v-46h-138v-115h109v95h75v-120h-46v-45
h-168z" />
    <glyph glyph-name="threequarters" unicode="&#xbe;" horiz-adv-x="973" 
d="M294 -12v180h79v155h78v77h79v156h80v78h108v-180h-79v-79h-79v-155h-79v-77h-78v-155h-109zM107 257v47h-47v70h76v-45h108v66h-137v70h137v97h-108v-45h-76v70h47v47h166v-47h47v-148h-47v-19h47v-116h-47v-47h-166zM832 -13v91h-186v116h47v45h45v46h47v46h121v-344
h-74zM721 149h111v111h-17v-46h-47v-45h-47v-20z" />
    <glyph glyph-name="questiondown" unicode="&#xbf;" 
d="M150 -11v87h-89v212h89v86h88v87h120v-210h-179v-137h238v174h119v-212h-90v-87h-296zM238 512v124h120v-124h-120z" />
    <glyph glyph-name="Agrave" unicode="&#xc0;" 
d="M61 -11v472h89v87h88v88h120v-88h88v-87h90v-472h-119v174h-238v-174h-118zM179 288h238v136h-89v87h-60v-87h-89v-136zM263 689v42h-45v44h-44v81h73v-44h45v-43h45v-80h-74z" />
    <glyph glyph-name="Aacute" unicode="&#xc1;" 
d="M61 -11v472h89v87h88v88h120v-88h88v-87h90v-472h-119v174h-238v-174h-118zM179 288h238v136h-89v87h-60v-87h-89v-136zM212 689v80h44v43h46v44h73v-81h-45v-44h-44v-42h-74z" />
    <glyph glyph-name="Acircumflex" unicode="&#xc2;" 
d="M61 -11v472h89v87h88v88h120v-88h88v-87h90v-472h-119v174h-238v-174h-118zM179 288h238v136h-89v87h-60v-87h-89v-136zM218 689v80h45v45h74v-45h44v-80h-74v44h-16v-44h-73z" />
    <glyph glyph-name="Atilde" unicode="&#xc3;" 
d="M61 -11v472h89v87h88v88h120v-88h88v-87h90v-472h-119v174h-238v-174h-118zM179 288h238v136h-89v87h-60v-87h-89v-136zM164 689v127h169v-44h17v44h76v-127h-170v45h-17v-45h-75z" />
    <glyph glyph-name="Adieresis" unicode="&#xc4;" 
d="M61 -11v472h89v87h88v88h120v-88h88v-87h90v-472h-119v174h-238v-174h-118zM179 288h238v136h-89v87h-60v-87h-89v-136zM139 685v125h120v-125h-120zM348 685v125h119v-125h-119z" />
    <glyph glyph-name="Aring" unicode="&#xc5;" 
d="M61 -11v472h89v87h88v88h120v-88h88v-87h90v-472h-119v174h-238v-174h-118zM179 288h238v136h-89v87h-60v-87h-89v-136zM240 689v125h117v-125h-117zM273 722h51v59h-51v-59z" />
    <glyph glyph-name="AE" unicode="&#xc6;" horiz-adv-x="954" 
d="M61 -11v472h89v87h88v88h120v-88h149v88h297v-88h89v-124h-119v87h-238v-137h178v-123h-178v-138h238v87h119v-125h-89v-86h-387v174h-238v-174h-118zM179 288h238v136h-89v87h-60v-87h-89v-136z" />
    <glyph glyph-name="Ccedilla" unicode="&#xc7;" 
d="M150 -11v86h-89v473h89v88h296v-88h90v-211h-119v174h-238v-398h238v175h119v-213h-90v-86h-296zM203 -193v44h-44v80h74v-43h74v21l-15 2v27h-44v88h103v-80h44v-39l15 -13v-43h-44v-44h-163z" />
    <glyph glyph-name="Egrave" unicode="&#xc8;" 
d="M150 -11v86h-89v473h89v88h296v-88h90v-124h-119v87h-238v-137h179v-123h-179v-138h238v87h119v-125h-90v-86h-296zM260 689v42h-45v44h-44v81h73v-44h45v-43h45v-80h-74z" />
    <glyph glyph-name="Eacute" unicode="&#xc9;" 
d="M150 -11v86h-89v473h89v88h296v-88h90v-124h-119v87h-238v-137h179v-123h-179v-138h238v87h119v-125h-90v-86h-296zM209 689v80h44v43h46v44h73v-81h-45v-44h-44v-42h-74z" />
    <glyph glyph-name="Ecircumflex" unicode="&#xca;" 
d="M150 -11v86h-89v473h89v88h296v-88h90v-124h-119v87h-238v-137h179v-123h-179v-138h238v87h119v-125h-90v-86h-296zM215 689v80h45v45h74v-45h44v-80h-74v44h-16v-44h-73z" />
    <glyph glyph-name="Edieresis" unicode="&#xcb;" 
d="M150 -11v86h-89v473h89v88h296v-88h90v-124h-119v87h-238v-137h179v-123h-179v-138h238v87h119v-125h-90v-86h-296zM136 685v125h120v-125h-120zM345 685v125h119v-125h-119z" />
    <glyph glyph-name="Igrave" unicode="&#xcc;" horiz-adv-x="419" 
d="M61 -11v124h89v398h-89v125h297v-125h-90v-398h90v-124h-297zM173 689v42h-45v44h-44v81h73v-44h45v-43h45v-80h-74z" />
    <glyph glyph-name="Iacute" unicode="&#xcd;" horiz-adv-x="419" 
d="M61 -11v124h89v398h-89v125h297v-125h-90v-398h90v-124h-297zM122 689v80h44v43h46v44h73v-81h-45v-44h-44v-42h-74z" />
    <glyph glyph-name="Icircumflex" unicode="&#xce;" horiz-adv-x="419" 
d="M61 -11v124h89v398h-89v125h297v-125h-90v-398h90v-124h-297zM128 689v80h45v45h74v-45h44v-80h-74v44h-16v-44h-73z" />
    <glyph glyph-name="Idieresis" unicode="&#xcf;" horiz-adv-x="419" 
d="M61 -11v124h89v398h-89v125h297v-125h-90v-398h90v-124h-297zM49 685v125h120v-125h-120zM258 685v125h119v-125h-119z" />
    <glyph glyph-name="Eth" unicode="&#xd0;" 
d="M60 -11v243h-37v125h37v279h297v-88h88v-87h91v-298h-90v-88h-89v-86h-297zM178 113h150v87h88v224h-88v87h-150v-154h99v-125h-99v-119z" />
    <glyph glyph-name="Ntilde" unicode="&#xd1;" 
d="M61 -11v647h118v-88h88v-87h91v-261h59v436h119v-647h-119v86h-88v88h-91v261h-59v-435h-118zM164 689v127h169v-44h17v44h76v-127h-170v45h-17v-45h-75z" />
    <glyph glyph-name="Ograve" unicode="&#xd2;" 
d="M150 -11v86h-89v473h89v88h296v-88h90v-473h-90v-86h-296zM179 113h238v398h-238v-398zM263 689v42h-45v44h-44v81h73v-44h45v-43h45v-80h-74z" />
    <glyph glyph-name="Oacute" unicode="&#xd3;" 
d="M150 -11v86h-89v473h89v88h296v-88h90v-473h-90v-86h-296zM179 113h238v398h-238v-398zM212 689v80h44v43h46v44h73v-81h-45v-44h-44v-42h-74z" />
    <glyph glyph-name="Ocircumflex" unicode="&#xd4;" 
d="M150 -11v86h-89v473h89v88h296v-88h90v-473h-90v-86h-296zM179 113h238v398h-238v-398zM218 689v80h45v45h74v-45h44v-80h-74v44h-16v-44h-73z" />
    <glyph glyph-name="Otilde" unicode="&#xd5;" 
d="M150 -11v86h-89v473h89v88h296v-88h90v-473h-90v-86h-296zM179 113h238v398h-238v-398zM164 689v127h169v-44h17v44h76v-127h-170v45h-17v-45h-75z" />
    <glyph glyph-name="Odieresis" unicode="&#xd6;" 
d="M150 -11v86h-89v473h89v88h296v-88h90v-473h-90v-86h-296zM179 113h238v398h-238v-398zM139 685v125h120v-125h-120zM348 685v125h119v-125h-119z" />
    <glyph glyph-name="multiply" unicode="&#xd7;" horiz-adv-x="600" 
d="M177 105l-87 85l126 123l-133 129l87 86l134 -130l126 123l87 -85l-125 -123l118 -115l-88 -85l-118 115z" />
    <glyph glyph-name="Oslash" unicode="&#xd8;" horiz-adv-x="610" 
d="M40 -52l400 722h119l-400 -722h-119zM155 -11v86h-89v473h89v88h297v-88h90v-473h-90v-86h-297zM185 113h238v398h-238v-398z" />
    <glyph glyph-name="Ugrave" unicode="&#xd9;" 
d="M150 -11v86h-89v561h118v-523h238v523h119v-561h-90v-86h-296zM263 689v42h-45v44h-44v81h73v-44h45v-43h45v-80h-74z" />
    <glyph glyph-name="Uacute" unicode="&#xda;" 
d="M150 -11v86h-89v561h118v-523h238v523h119v-561h-90v-86h-296zM212 689v80h44v43h46v44h73v-81h-45v-44h-44v-42h-74z" />
    <glyph glyph-name="Ucircumflex" unicode="&#xdb;" 
d="M150 -11v86h-89v561h118v-523h238v523h119v-561h-90v-86h-296zM218 689v80h45v45h74v-45h44v-80h-74v44h-16v-44h-73z" />
    <glyph glyph-name="Udieresis" unicode="&#xdc;" 
d="M150 -11v86h-89v561h118v-523h238v523h119v-561h-90v-86h-296zM139 685v125h120v-125h-120zM348 685v125h119v-125h-119z" />
    <glyph glyph-name="Yacute" unicode="&#xdd;" 
d="M238 -11v348h-88v87h-89v212h118v-175h89v-87h60v87h89v175h119v-212h-90v-87h-88v-348h-120zM212 689v80h44v43h46v44h73v-81h-45v-44h-44v-42h-74z" />
    <glyph glyph-name="Thorn" unicode="&#xde;" 
d="M61 -11v647h118v-98h267v-88h90v-298h-90v-87h-267v-76h-118zM179 189h238v224h-238v-224z" />
    <glyph glyph-name="germandbls" unicode="&#xdf;" 
d="M61 -11v647h385v-88h90v-211h-90v-49h90v-213h-90v-86h-208v124h179v138h-179v123h179v137h-238v-522h-118z" />
    <glyph glyph-name="agrave" unicode="&#xe0;" horiz-adv-x="687" 
d="M150 -11v86h-89v299h89v87h296v-87h91v-261h89v-124h-119v86h-61v-86h-296zM179 113h238v224h-238v-224zM266 515v42h-45v44h-44v81h73v-44h45v-43h45v-80h-74z" />
    <glyph glyph-name="aacute" unicode="&#xe1;" horiz-adv-x="687" 
d="M150 -11v86h-89v299h89v87h296v-87h91v-261h89v-124h-119v86h-61v-86h-296zM179 113h238v224h-238v-224zM215 515v80h44v43h46v44h73v-81h-45v-44h-44v-42h-74z" />
    <glyph glyph-name="acircumflex" unicode="&#xe2;" horiz-adv-x="687" 
d="M150 -11v86h-89v299h89v87h296v-87h91v-261h89v-124h-119v86h-61v-86h-296zM179 113h238v224h-238v-224zM221 515v80h45v45h74v-45h44v-80h-74v44h-16v-44h-73z" />
    <glyph glyph-name="atilde" unicode="&#xe3;" horiz-adv-x="687" 
d="M150 -11v86h-89v299h89v87h296v-87h91v-261h89v-124h-119v86h-61v-86h-296zM179 113h238v224h-238v-224zM167 515v127h169v-44h17v44h76v-127h-170v45h-17v-45h-75z" />
    <glyph glyph-name="adieresis" unicode="&#xe4;" horiz-adv-x="687" 
d="M150 -11v86h-89v299h89v87h296v-87h91v-261h89v-124h-119v86h-61v-86h-296zM179 113h238v224h-238v-224zM142 511v125h120v-125h-120zM351 511v125h119v-125h-119z" />
    <glyph glyph-name="aring" unicode="&#xe5;" horiz-adv-x="687" 
d="M150 -11v86h-89v299h89v87h296v-87h91v-261h89v-124h-119v86h-61v-86h-296zM179 113h238v224h-238v-224zM243 515v125h117v-125h-117zM276 548h51v59h-51v-59z" />
    <glyph glyph-name="ae" unicode="&#xe6;" horiz-adv-x="1133" 
d="M150 -11v86h-89v299h89v87h296v-87h90v-261h61v261h90v87h296v-87h89v-123h-118v86h-239v-49h179v-125h-179v-50h239v88h118v-125h-89v-87h-296v86h-61v-86h-119v86h-61v-86h-296zM179 113h238v224h-238v-224z" />
    <glyph glyph-name="ccedilla" unicode="&#xe7;" 
d="M150 -11v86h-89v299h89v87h296v-87h90v-123h-119v86h-238v-224h238v87h119v-125h-90v-86h-296zM203 -193v44h-44v80h74v-43h74v21l-15 2v27h-44v88h103v-80h44v-39l15 -13v-43h-44v-44h-163z" />
    <glyph glyph-name="egrave" unicode="&#xe8;" 
d="M150 -11v86h-89v299h89v87h296v-87h90v-123h-119v86h-238v-49h179v-125h-179v-50h238v88h119v-125h-90v-87h-296zM263 515v42h-45v44h-44v81h73v-44h45v-43h45v-80h-74z" />
    <glyph glyph-name="eacute" unicode="&#xe9;" 
d="M150 -11v86h-89v299h89v87h296v-87h90v-123h-119v86h-238v-49h179v-125h-179v-50h238v88h119v-125h-90v-87h-296zM212 515v80h44v43h46v44h73v-81h-45v-44h-44v-42h-74z" />
    <glyph glyph-name="ecircumflex" unicode="&#xea;" 
d="M150 -11v86h-89v299h89v87h296v-87h90v-123h-119v86h-238v-49h179v-125h-179v-50h238v88h119v-125h-90v-87h-296zM218 515v80h45v45h74v-45h44v-80h-74v44h-16v-44h-73z" />
    <glyph glyph-name="edieresis" unicode="&#xeb;" 
d="M150 -11v86h-89v299h89v87h296v-87h90v-123h-119v86h-238v-49h179v-125h-179v-50h238v88h119v-125h-90v-87h-296zM139 511v125h120v-125h-120zM348 511v125h119v-125h-119z" />
    <glyph glyph-name="igrave" unicode="&#xec;" horiz-adv-x="240" 
d="M61 -11v472h119v-472h-119zM84 515v42h-45v44h-44v81h73v-44h45v-43h45v-80h-74z" />
    <glyph glyph-name="iacute" unicode="&#xed;" horiz-adv-x="240" 
d="M61 -11v472h119v-472h-119zM33 515v80h44v43h46v44h73v-81h-45v-44h-44v-42h-74z" />
    <glyph glyph-name="icircumflex" unicode="&#xee;" horiz-adv-x="240" 
d="M61 -11v472h119v-472h-119zM39 515v80h45v45h74v-45h44v-80h-74v44h-16v-44h-73z" />
    <glyph glyph-name="idieresis" unicode="&#xef;" horiz-adv-x="240" 
d="M61 -11v472h119v-472h-119zM-20 511v125h119v-125h-119zM142 511v125h118v-125h-118z" />
    <glyph glyph-name="eth" unicode="&#xf0;" horiz-adv-x="605" 
d="M151 -11v86h-90v213h90v86h267v137h-238v-87h-119v124h90v88h296v-88h89v-473h-89v-86h-296zM180 113h238v138h-238v-138zM250 420l200 280h119l-200 -280h-119z" />
    <glyph glyph-name="ntilde" unicode="&#xf1;" 
d="M61 -11v472h385v-87h90v-385h-119v348h-238v-348h-118zM164 515v127h169v-44h17v44h76v-127h-170v45h-17v-45h-75z" />
    <glyph glyph-name="ograve" unicode="&#xf2;" 
d="M150 -11v86h-89v299h89v87h296v-87h90v-299h-90v-86h-296zM179 113h238v224h-238v-224zM263 515v42h-45v44h-44v81h73v-44h45v-43h45v-80h-74z" />
    <glyph glyph-name="oacute" unicode="&#xf3;" 
d="M150 -11v86h-89v299h89v87h296v-87h90v-299h-90v-86h-296zM179 113h238v224h-238v-224zM212 515v80h44v43h46v44h73v-81h-45v-44h-44v-42h-74z" />
    <glyph glyph-name="ocircumflex" unicode="&#xf4;" 
d="M150 -11v86h-89v299h89v87h296v-87h90v-299h-90v-86h-296zM179 113h238v224h-238v-224zM218 515v80h45v45h74v-45h44v-80h-74v44h-16v-44h-73z" />
    <glyph glyph-name="otilde" unicode="&#xf5;" 
d="M150 -11v86h-89v299h89v87h296v-87h90v-299h-90v-86h-296zM179 113h238v224h-238v-224zM164 515v127h169v-44h17v44h76v-127h-170v45h-17v-45h-75z" />
    <glyph glyph-name="odieresis" unicode="&#xf6;" 
d="M150 -11v86h-89v299h89v87h296v-87h90v-299h-90v-86h-296zM179 113h238v224h-238v-224zM139 511v125h120v-125h-120zM348 511v125h119v-125h-119z" />
    <glyph glyph-name="divide" unicode="&#xf7;" horiz-adv-x="600" 
d="M104 242v125h393v-125h-393zM240 73v125h119v-125h-119zM240 412v124h119v-124h-119z" />
    <glyph glyph-name="oslash" unicode="&#xf8;" 
d="M32 -69l410 600h120l-410 -600h-120zM150 -11v86h-89v299h89v87h296v-87h90v-299h-90v-86h-296zM179 113h238v224h-238v-224z" />
    <glyph glyph-name="ugrave" unicode="&#xf9;" 
d="M150 -11v86h-89v386h118v-348h238v348h119v-386h-90v-86h-296zM263 515v42h-45v44h-44v81h73v-44h45v-43h45v-80h-74z" />
    <glyph glyph-name="uacute" unicode="&#xfa;" 
d="M150 -11v86h-89v386h118v-348h238v348h119v-386h-90v-86h-296zM212 515v80h44v43h46v44h73v-81h-45v-44h-44v-42h-74z" />
    <glyph glyph-name="ucircumflex" unicode="&#xfb;" 
d="M150 -11v86h-89v386h118v-348h238v348h119v-386h-90v-86h-296zM218 515v80h45v45h74v-45h44v-80h-74v44h-16v-44h-73z" />
    <glyph glyph-name="udieresis" unicode="&#xfc;" 
d="M150 -11v86h-89v386h118v-348h238v348h119v-386h-90v-86h-296zM139 511v125h120v-125h-120zM348 511v125h119v-125h-119z" />
    <glyph glyph-name="yacute" unicode="&#xfd;" 
d="M150 -186v87h-89v124h118v-87h239v137h-268v88h-89v298h118v-261h239v261h118v-560h-89v-87h-297zM212 515v80h44v43h46v44h73v-81h-45v-44h-44v-42h-74z" />
    <glyph glyph-name="thorn" unicode="&#xfe;" 
d="M61 -11v647h118v-123h267v-87h90v-300h-90v-85h-267v-52h-118zM179 164h238v224h-238v-224z" />
    <glyph glyph-name="ydieresis" unicode="&#xff;" 
d="M150 -186v87h-89v124h118v-87h239v137h-268v88h-89v298h118v-261h239v261h118v-560h-89v-87h-297zM139 511v125h120v-125h-120zM348 511v125h119v-125h-119z" />
    <glyph glyph-name="Amacron" unicode="&#x100;" 
d="M61 -11v472h89v87h88v88h120v-88h88v-87h90v-472h-119v174h-238v-174h-118zM179 288h238v136h-89v87h-60v-87h-89v-136zM151 689v118h296v-118h-296z" />
    <glyph glyph-name="amacron" unicode="&#x101;" horiz-adv-x="687" 
d="M150 -11v86h-89v299h89v87h296v-87h91v-261h89v-124h-119v86h-61v-86h-296zM179 113h238v224h-238v-224zM154 515v118h296v-118h-296z" />
    <glyph glyph-name="Abreve" unicode="&#x102;" 
d="M61 -11v472h89v87h88v88h120v-88h88v-87h90v-472h-119v174h-238v-174h-118zM179 288h238v136h-89v87h-60v-87h-89v-136zM169 689v125h73v-44h112v44h72v-125h-257z" />
    <glyph glyph-name="abreve" unicode="&#x103;" horiz-adv-x="687" 
d="M150 -11v86h-89v299h89v87h296v-87h91v-261h89v-124h-119v86h-61v-86h-296zM179 113h238v224h-238v-224zM172 515v125h73v-44h112v44h72v-125h-257z" />
    <glyph glyph-name="Aogonek" unicode="&#x104;" 
d="M61 -11v472h89v87h88v88h120v-88h88v-87h90v-472h-119v174h-238v-174h-118zM179 288h238v136h-89v87h-60v-87h-89v-136zM410 -205v44h-44v80h44v30l15 -1v79h104v-101h-45v-21l-15 -6v-23h75v43h73v-80h-44v-44h-163z" />
    <glyph glyph-name="aogonek" unicode="&#x105;" horiz-adv-x="687" 
d="M150 -11v86h-89v299h89v87h296v-87h91v-261h89v-124h-119v86h-61v-86h-296zM179 113h238v224h-238v-224zM500 -193v44h-44v80h44v30l15 -1v79h104v-101h-45v-21l-15 -6v-23h75v43h73v-80h-44v-44h-163z" />
    <glyph glyph-name="Cacute" unicode="&#x106;" 
d="M150 -11v86h-89v473h89v88h296v-88h90v-211h-119v174h-238v-398h238v175h119v-213h-90v-86h-296zM210 689v80h44v43h46v44h73v-81h-45v-44h-44v-42h-74z" />
    <glyph glyph-name="cacute" unicode="&#x107;" 
d="M150 -11v86h-89v299h89v87h296v-87h90v-123h-119v86h-238v-224h238v87h119v-125h-90v-86h-296zM212 515v80h44v43h46v44h73v-81h-45v-44h-44v-42h-74z" />
    <glyph glyph-name="Ccircumflex" unicode="&#x108;" 
d="M150 -11v86h-89v473h89v88h296v-88h90v-211h-119v174h-238v-398h238v175h119v-213h-90v-86h-296zM216 689v80h45v45h74v-45h44v-80h-74v44h-16v-44h-73z" />
    <glyph glyph-name="ccircumflex" unicode="&#x109;" 
d="M150 -11v86h-89v299h89v87h296v-87h90v-123h-119v86h-238v-224h238v87h119v-125h-90v-86h-296zM218 515v80h45v45h74v-45h44v-80h-74v44h-16v-44h-73z" />
    <glyph glyph-name="Cdotaccent" unicode="&#x10a;" 
d="M150 -11v86h-89v473h89v88h296v-88h90v-211h-119v174h-238v-398h238v175h119v-213h-90v-86h-296zM238 689v125h120v-125h-120z" />
    <glyph glyph-name="cdotaccent" unicode="&#x10b;" 
d="M150 -11v86h-89v299h89v87h296v-87h90v-123h-119v86h-238v-224h238v87h119v-125h-90v-86h-296zM240 515v125h120v-125h-120z" />
    <glyph glyph-name="Ccaron" unicode="&#x10c;" 
d="M150 -11v86h-89v473h89v88h296v-88h90v-211h-119v174h-238v-398h238v175h119v-213h-90v-86h-296zM261 689v44h-45v81h73v-44h16v44h74v-81h-44v-44h-74z" />
    <glyph glyph-name="ccaron" unicode="&#x10d;" 
d="M150 -11v86h-89v299h89v87h296v-87h90v-123h-119v86h-238v-224h238v87h119v-125h-90v-86h-296zM263 515v44h-45v81h73v-44h16v44h74v-81h-44v-44h-74z" />
    <glyph glyph-name="Dcaron" unicode="&#x10e;" 
d="M61 -11v647h297v-88h88v-87h90v-298h-90v-88h-88v-86h-297zM179 113h149v87h89v224h-89v87h-149v-398zM213 689v44h-45v81h73v-44h16v44h74v-81h-44v-44h-74z" />
    <glyph glyph-name="dcaron" unicode="&#x10f;" 
d="M150 -11v86h-89v299h89v87h268v175h119v-561h-91v-86h-296zM179 113h238v224h-238v-224zM603 424v61l16 -5v31h-60v125h118v-88h45v-80h-45v-44h-74z" />
    <glyph glyph-name="Dcroat" unicode="&#x110;" 
d="M60 -11v243h-37v125h37v279h297v-88h88v-87h91v-298h-90v-88h-89v-86h-297zM178 113h150v87h88v224h-88v87h-150v-154h99v-125h-99v-119z" />
    <glyph glyph-name="dcroat" unicode="&#x111;" horiz-adv-x="596" 
d="M150 -11v86h-89v299h89v84h268v26h-200v117h200v35h119v-35h26v-120h-26v-406h-91v-86h-296zM179 113h238v224h-238v-224z" />
    <glyph glyph-name="Emacron" unicode="&#x112;" 
d="M150 -11v86h-89v473h89v88h296v-88h90v-124h-119v87h-238v-137h179v-123h-179v-138h238v87h119v-125h-90v-86h-296zM148 689v118h296v-118h-296z" />
    <glyph glyph-name="emacron" unicode="&#x113;" 
d="M150 -11v86h-89v299h89v87h296v-87h90v-123h-119v86h-238v-49h179v-125h-179v-50h238v88h119v-125h-90v-87h-296zM151 515v118h296v-118h-296z" />
    <glyph glyph-name="Ebreve" unicode="&#x114;" 
d="M150 -11v86h-89v473h89v88h296v-88h90v-124h-119v87h-238v-137h179v-123h-179v-138h238v87h119v-125h-90v-86h-296zM167 689v125h73v-44h112v44h72v-125h-257z" />
    <glyph glyph-name="ebreve" unicode="&#x115;" 
d="M150 -11v86h-89v299h89v87h296v-87h90v-123h-119v86h-238v-49h179v-125h-179v-50h238v88h119v-125h-90v-87h-296zM169 515v125h73v-44h112v44h72v-125h-257z" />
    <glyph glyph-name="Edotaccent" unicode="&#x116;" 
d="M150 -11v86h-89v473h89v88h296v-88h90v-124h-119v87h-238v-137h179v-123h-179v-138h238v87h119v-125h-90v-86h-296zM237 689v125h120v-125h-120z" />
    <glyph glyph-name="edotaccent" unicode="&#x117;" 
d="M150 -11v86h-89v299h89v87h296v-87h90v-123h-119v86h-238v-49h179v-125h-179v-50h238v88h119v-125h-90v-87h-296zM240 515v125h120v-125h-120z" />
    <glyph glyph-name="Eogonek" unicode="&#x118;" 
d="M150 -11v86h-89v473h89v88h296v-88h90v-124h-119v87h-238v-137h179v-123h-179v-138h238v87h119v-125h-90v-86h-296zM222 -205v44h-44v80h44v30l15 -1v79h104v-101h-45v-21l-15 -6v-23h75v43h73v-80h-44v-44h-163z" />
    <glyph glyph-name="eogonek" unicode="&#x119;" 
d="M150 -11v86h-89v299h89v87h296v-87h90v-123h-119v86h-238v-49h179v-125h-179v-50h238v88h119v-125h-90v-87h-296zM229 -193v44h-44v80h44v30l15 -1v79h104v-101h-45v-21l-15 -6v-23h75v43h73v-80h-44v-44h-163z" />
    <glyph glyph-name="Ecaron" unicode="&#x11a;" 
d="M150 -11v86h-89v473h89v88h296v-88h90v-124h-119v87h-238v-137h179v-123h-179v-138h238v87h119v-125h-90v-86h-296zM260 689v44h-45v81h73v-44h16v44h74v-81h-44v-44h-74z" />
    <glyph glyph-name="ecaron" unicode="&#x11b;" 
d="M150 -11v86h-89v299h89v87h296v-87h90v-123h-119v86h-238v-49h179v-125h-179v-50h238v88h119v-125h-90v-87h-296zM263 515v44h-45v81h73v-44h16v44h74v-81h-44v-44h-74z" />
    <glyph glyph-name="Gcircumflex" unicode="&#x11c;" 
d="M150 -11v86h-89v473h89v88h296v-88h90v-211h-119v174h-238v-398h238v50h-89v88h-90v123h120v-86h178v-213h-90v-86h-296zM218 689v80h45v45h74v-45h44v-80h-74v44h-16v-44h-73z" />
    <glyph glyph-name="gcircumflex" unicode="&#x11d;" 
d="M150 -186v87h-89v124h118v-87h239v137h-268v88h-89v211h89v87h297v-87h89v-473h-89v-87h-297zM179 200h239v137h-239v-137zM218 515v80h45v45h74v-45h44v-80h-74v44h-16v-44h-73z" />
    <glyph glyph-name="Gbreve" unicode="&#x11e;" 
d="M150 -11v86h-89v473h89v88h296v-88h90v-211h-119v174h-238v-398h238v50h-89v88h-90v123h120v-86h178v-213h-90v-86h-296zM169 689v125h73v-44h112v44h72v-125h-257z" />
    <glyph glyph-name="gbreve" unicode="&#x11f;" 
d="M150 -186v87h-89v124h118v-87h239v137h-268v88h-89v211h89v87h297v-87h89v-473h-89v-87h-297zM179 200h239v137h-239v-137zM169 515v125h73v-44h112v44h72v-125h-257z" />
    <glyph glyph-name="Gdotaccent" unicode="&#x120;" 
d="M150 -11v86h-89v473h89v88h296v-88h90v-211h-119v174h-238v-398h238v50h-89v88h-90v123h120v-86h178v-213h-90v-86h-296zM240 689v125h120v-125h-120z" />
    <glyph glyph-name="gdotaccent" unicode="&#x121;" 
d="M150 -186v87h-89v124h118v-87h239v137h-268v88h-89v211h89v87h297v-87h89v-473h-89v-87h-297zM179 200h239v137h-239v-137zM240 515v125h120v-125h-120z" />
    <glyph glyph-name="uni0122" unicode="&#x122;" 
d="M150 -11v86h-89v473h89v88h296v-88h90v-211h-119v174h-238v-398h238v50h-89v88h-90v123h120v-86h178v-213h-90v-86h-296zM279 -258v61l16 1v25h-60v125h118v-88h45v-79h-45v-45h-74z" />
    <glyph glyph-name="uni0123" unicode="&#x123;" 
d="M150 -186v87h-89v124h118v-87h239v137h-268v88h-89v211h89v87h297v-87h89v-473h-89v-87h-297zM179 200h239v137h-239v-137zM262 515v87h-45v80h45v44h74v-61l-16 1v-26h60v-125h-118z" />
    <glyph glyph-name="Hcircumflex" unicode="&#x124;" 
d="M61 -11v647h118v-262h59v87h120v-87h59v262h119v-647h-119v262h-238v-262h-118zM218 689v80h45v45h74v-45h44v-80h-74v44h-16v-44h-73z" />
    <glyph glyph-name="hcircumflex" unicode="&#x125;" 
d="M61 -11v647h118v-262h59v87h208v-87h90v-385h-119v348h-149v-86h-89v-262h-118zM218 689v80h45v45h74v-45h44v-80h-74v44h-16v-44h-73z" />
    <glyph glyph-name="Hbar" unicode="&#x126;" 
d="M61 -11v647h118v-36h238v36h119v-647h-119v262h-238v-262h-118zM179 374h59v87h120v-87h59v102h-238v-102z" />
    <glyph glyph-name="hbar" unicode="&#x127;" 
d="M60 -11v491h-29v124h29v32h118v-32h99v-124h-99v-106h60v87h208v-87h90v-385h-120v348h-149v-86h-89v-262h-118z" />
    <glyph glyph-name="Itilde" unicode="&#x128;" horiz-adv-x="419" 
d="M61 -11v124h89v398h-89v125h297v-125h-90v-398h90v-124h-297zM74 689v127h169v-44h17v44h76v-127h-170v45h-17v-45h-75z" />
    <glyph glyph-name="itilde" unicode="&#x129;" horiz-adv-x="240" 
d="M61 -11v472h119v-472h-119zM-15 515v127h169v-44h17v44h76v-127h-170v45h-17v-45h-75z" />
    <glyph glyph-name="Imacron" unicode="&#x12a;" horiz-adv-x="419" 
d="M61 -11v124h89v398h-89v125h297v-125h-90v-398h90v-124h-297zM61 689v118h296v-118h-296z" />
    <glyph glyph-name="imacron" unicode="&#x12b;" horiz-adv-x="240" 
d="M61 -11v472h119v-472h-119zM-28 515v118h296v-118h-296z" />
    <glyph glyph-name="Ibreve" unicode="&#x12c;" horiz-adv-x="419" 
d="M61 -11v124h89v398h-89v125h297v-125h-90v-398h90v-124h-297zM80 689v125h73v-44h112v44h72v-125h-257z" />
    <glyph glyph-name="ibreve" unicode="&#x12d;" horiz-adv-x="240" 
d="M59 -11v472h119v-472h-119zM-12 520v125h73v-44h112v44h73v-125h-258z" />
    <glyph glyph-name="Iogonek" unicode="&#x12e;" horiz-adv-x="419" 
d="M61 -11v124h89v398h-89v125h297v-125h-90v-398h90v-124h-297zM138 -205v44h-44v80h44v30l15 -1v79h104v-101h-45v-21l-15 -6v-23h75v43h73v-80h-44v-44h-163z" />
    <glyph glyph-name="iogonek" unicode="&#x12f;" horiz-adv-x="240" 
d="M61 -11v472h119v-472h-119zM61 515v125h120v-125h-120zM53 -200v44h-44v80h44v30l15 -1v79h104v-101h-45v-21l-15 -6v-23h75v43h73v-80h-44v-44h-163z" />
    <glyph glyph-name="Idotaccent" unicode="&#x130;" horiz-adv-x="419" 
d="M61 -11v124h89v398h-89v125h297v-125h-90v-398h90v-124h-297zM150 689v125h120v-125h-120z" />
    <glyph glyph-name="dotlessi" unicode="&#x131;" horiz-adv-x="240" 
d="M61 -11v472h119v-472h-119z" />
    <glyph glyph-name="IJ" unicode="&#x132;" horiz-adv-x="1016" 
d="M61 -11v124h89v398h-89v125h297v-125h-90v-398h90v-124h-297zM569 -11v86h-89v213h118v-175h238v398h-267v125h296v-88h90v-473h-90v-86h-296z" />
    <glyph glyph-name="ij" unicode="&#x133;" horiz-adv-x="728" 
d="M370 -12v87h-89v125h118v-87h149v348h119v-386h-89v-87h-208zM61 -11v472h118v-472h-118z" />
    <glyph glyph-name="Jcircumflex" unicode="&#x134;" 
d="M150 -11v86h-89v213h118v-175h238v398h-267v125h296v-88h90v-473h-90v-86h-296zM218 689v80h45v45h74v-45h44v-80h-74v44h-16v-44h-73z" />
    <glyph glyph-name="jcircumflex" unicode="&#x135;" horiz-adv-x="508" 
d="M150 -12v87h-89v125h118v-87h149v348h119v-386h-89v-87h-208zM303 515v80h45v45h74v-45h44v-80h-74v44h-16v-44h-73z" />
    <glyph glyph-name="uni0136" unicode="&#x136;" 
d="M61 -11v559h89v88h118v-125h-89v-137h59v87h91v87h88v88h119v-125h-90v-87h-88v-87h-90v-49h90v-88h88v-87h90v-124h-119v86h-88v88h-91v88h-59v-262h-118zM279 -258v61l16 1v25h-60v125h118v-88h45v-79h-45v-45h-74z" />
    <glyph glyph-name="uni0137" unicode="&#x137;" 
d="M61 -11v647h118v-348h59v86h179v87h119v-124h-90v-86h-178v-51h178v-87h90v-124h-119v86h-179v88h-59v-174h-118zM279 -258v61l16 1v25h-60v125h118v-88h45v-79h-45v-45h-74z" />
    <glyph glyph-name="Lacute" unicode="&#x139;" 
d="M150 -11v86h-89v561h118v-523h238v87h119v-125h-90v-86h-296zM212 731v80h44v43h46v44h73v-81h-45v-44h-44v-42h-74z" />
    <glyph glyph-name="lacute" unicode="&#x13a;" horiz-adv-x="240" 
d="M61 -11v647h118v-647h-118zM33 689v80h44v43h46v44h73v-81h-45v-44h-44v-42h-74z" />
    <glyph glyph-name="uni013B" unicode="&#x13b;" 
d="M150 -11v86h-89v561h118v-523h238v87h119v-125h-90v-86h-296zM279 -258v61l16 1v25h-60v125h118v-88h45v-79h-45v-45h-74z" />
    <glyph glyph-name="uni013C" unicode="&#x13c;" horiz-adv-x="240" 
d="M61 -11v647h118v-647h-118zM100 -258v61l16 1v25h-60v125h118v-88h45v-79h-45v-45h-74z" />
    <glyph glyph-name="Lcaron" unicode="&#x13d;" 
d="M150 -11v86h-89v561h118v-523h238v87h119v-125h-90v-86h-296zM398 424v61l16 -5v31h-60v125h118v-88h45v-80h-45v-44h-74z" />
    <glyph glyph-name="lcaron" unicode="&#x13e;" horiz-adv-x="240" 
d="M61 -11v647h118v-647h-118zM245 425v61l16 -5v31h-60v125h118v-88h45v-80h-45v-44h-74z" />
    <glyph glyph-name="Ldot" unicode="&#x13f;" 
d="M150 -11v86h-89v561h118v-523h238v87h119v-125h-90v-86h-296zM240 395v125h118v-125h-118z" />
    <glyph glyph-name="ldot" unicode="&#x140;" horiz-adv-x="240" 
d="M61 -11v647h118v-647h-118zM61 0v125h118v-125h-118z" />
    <glyph glyph-name="Lslash" unicode="&#x141;" horiz-adv-x="604" 
d="M157 -11v86h-89v94l-20 -26l-72 55l92 118v320h118v-165l51 65l72 -52l-123 -160v-211h238v87h120v-125h-90v-86h-297z" />
    <glyph glyph-name="lslash" unicode="&#x142;" horiz-adv-x="258" 
d="M70 -11v142l-22 -31l-80 45l102 156v335h118v-140l29 49l77 -46l-106 -174v-336h-118z" />
    <glyph glyph-name="Nacute" unicode="&#x143;" 
d="M61 -11v647h118v-88h88v-87h91v-261h59v436h119v-647h-119v86h-88v88h-91v261h-59v-435h-118zM212 689v80h44v43h46v44h73v-81h-45v-44h-44v-42h-74z" />
    <glyph glyph-name="nacute" unicode="&#x144;" 
d="M61 -11v472h385v-87h90v-385h-119v348h-238v-348h-118zM212 515v80h44v43h46v44h73v-81h-45v-44h-44v-42h-74z" />
    <glyph glyph-name="uni0145" unicode="&#x145;" 
d="M61 -11v647h118v-88h88v-87h91v-261h59v436h119v-647h-119v86h-88v88h-91v261h-59v-435h-118zM279 -258v61l16 1v25h-60v125h118v-88h45v-79h-45v-45h-74z" />
    <glyph glyph-name="uni0146" unicode="&#x146;" 
d="M61 -11v472h385v-87h90v-385h-119v348h-238v-348h-118zM279 -258v61l16 1v25h-60v125h118v-88h45v-79h-45v-45h-74z" />
    <glyph glyph-name="Ncaron" unicode="&#x147;" 
d="M61 -11v647h118v-88h88v-87h91v-261h59v436h119v-647h-119v86h-88v88h-91v261h-59v-435h-118zM263 689v44h-45v81h73v-44h16v44h74v-81h-44v-44h-74z" />
    <glyph glyph-name="ncaron" unicode="&#x148;" 
d="M61 -11v472h385v-87h90v-385h-119v348h-238v-348h-118zM263 515v44h-45v81h73v-44h16v44h74v-81h-44v-44h-74z" />
    <glyph glyph-name="napostrophe" unicode="&#x149;" horiz-adv-x="726" 
d="M190 -11v472h385v-87h90v-385h-119v348h-238v-348h-118zM61 424v47l15 14v26h-59v125h118v-88h44v-80h-44v-44h-74z" />
    <glyph glyph-name="Eng" unicode="&#x14a;" 
d="M238 -239v88h-89v119h119v-82h149v189h-88v88h-91v261h-59v-435h-118v647h118v-88h88v-87h91v-261h59v436h119v-787h-90v-88h-208z" />
    <glyph glyph-name="eng" unicode="&#x14b;" horiz-adv-x="695" 
d="M240 -242v89h-90v114h120v-89h150v471h-240v-342h-119v455h389v-89h91v-520h-91v-89h-210z" />
    <glyph glyph-name="Omacron" unicode="&#x14c;" 
d="M150 -11v86h-89v473h89v88h296v-88h90v-473h-90v-86h-296zM179 113h238v398h-238v-398zM151 689v118h296v-118h-296z" />
    <glyph glyph-name="omacron" unicode="&#x14d;" 
d="M150 -11v86h-89v299h89v87h296v-87h90v-299h-90v-86h-296zM179 113h238v224h-238v-224zM151 515v118h296v-118h-296z" />
    <glyph glyph-name="Obreve" unicode="&#x14e;" 
d="M150 -11v86h-89v473h89v88h296v-88h90v-473h-90v-86h-296zM179 113h238v398h-238v-398zM169 689v125h73v-44h112v44h72v-125h-257z" />
    <glyph glyph-name="obreve" unicode="&#x14f;" 
d="M150 -11v86h-89v299h89v87h296v-87h90v-299h-90v-86h-296zM179 113h238v224h-238v-224zM169 515v125h73v-44h112v44h72v-125h-257z" />
    <glyph glyph-name="Ohungarumlaut" unicode="&#x150;" 
d="M150 -11v86h-89v473h89v88h296v-88h90v-473h-90v-86h-296zM179 113h238v398h-238v-398zM366 689v42h-44v44h-45v81h73v-44h46v-43h44v-80h-74zM203 689v42h-45v44h-44v81h73v-44h45v-43h44v-80h-73z" />
    <glyph glyph-name="ohungarumlaut" unicode="&#x151;" 
d="M150 -11v86h-89v299h89v87h296v-87h90v-299h-90v-86h-296zM179 113h238v224h-238v-224zM366 515v42h-44v44h-45v81h73v-44h46v-43h44v-80h-74zM203 515v42h-45v44h-44v81h73v-44h45v-43h44v-80h-73z" />
    <glyph glyph-name="OE" unicode="&#x152;" horiz-adv-x="954" 
d="M150 -11v86h-89v473h89v88h296v-88h61v88h297v-88h89v-124h-119v87h-238v-137h178v-123h-178v-138h238v87h119v-125h-89v-86h-297v86h-61v-86h-296zM179 113h238v398h-238v-398z" />
    <glyph glyph-name="oe" unicode="&#x153;" horiz-adv-x="954" 
d="M150 -11v86h-89v299h89v87h296v-87h61v87h297v-87h89v-123h-119v86h-238v-49h178v-125h-178v-50h238v88h119v-125h-89v-87h-297v86h-61v-86h-296zM179 113h238v224h-238v-224z" />
    <glyph glyph-name="Racute" unicode="&#x154;" 
d="M61 -11v559h89v88h296v-88h90v-297h-90v-88h-43v-50h88v-124h-117v86h-91v88h-104v-174h-118zM179 288h238v223h-238v-223zM212 689v80h44v43h46v44h73v-81h-45v-44h-44v-42h-74z" />
    <glyph glyph-name="racute" unicode="&#x155;" 
d="M61 -11v385h89v87h296v-87h90v-123h-119v86h-238v-348h-118zM212 515v80h44v43h46v44h73v-81h-45v-44h-44v-42h-74z" />
    <glyph glyph-name="uni0156" unicode="&#x156;" 
d="M61 -11v559h89v88h296v-88h90v-297h-90v-88h-43v-50h88v-124h-117v86h-91v88h-104v-174h-118zM179 288h238v223h-238v-223zM279 -258v61l16 1v25h-60v125h118v-88h45v-79h-45v-45h-74z" />
    <glyph glyph-name="uni0157" unicode="&#x157;" 
d="M61 -11v385h89v87h296v-87h90v-123h-119v86h-238v-348h-118zM279 -258v61l16 1v25h-60v125h118v-88h45v-79h-45v-45h-74z" />
    <glyph glyph-name="Rcaron" unicode="&#x158;" 
d="M61 -11v559h89v88h296v-88h90v-297h-90v-88h-43v-50h88v-124h-117v86h-91v88h-104v-174h-118zM179 288h238v223h-238v-223zM263 689v44h-45v81h73v-44h16v44h74v-81h-44v-44h-74z" />
    <glyph glyph-name="rcaron" unicode="&#x159;" 
d="M61 -11v385h89v87h296v-87h90v-123h-119v86h-238v-348h-118zM263 515v44h-45v81h73v-44h16v44h74v-81h-44v-44h-74z" />
    <glyph glyph-name="Sacute" unicode="&#x15a;" 
d="M150 -11v86h-89v125h118v-87h238v138h-267v86h-89v211h89v88h296v-88h90v-124h-119v87h-238v-137h267v-86h90v-213h-90v-86h-296zM212 689v80h44v43h46v44h73v-81h-45v-44h-44v-42h-74z" />
    <glyph glyph-name="sacute" unicode="&#x15b;" 
d="M61 -11v124h356v50h-267v88h-89v123h89v87h386v-124h-357v-49h267v-88h90v-125h-90v-86h-385zM264 515v80h44v43h46v44h73v-81h-45v-44h-44v-42h-74z" />
    <glyph glyph-name="Scircumflex" unicode="&#x15c;" 
d="M150 -11v86h-89v125h118v-87h238v138h-267v86h-89v211h89v88h296v-88h90v-124h-119v87h-238v-137h267v-86h90v-213h-90v-86h-296zM218 689v80h45v45h74v-45h44v-80h-74v44h-16v-44h-73z" />
    <glyph glyph-name="scircumflex" unicode="&#x15d;" 
d="M61 -11v124h356v50h-267v88h-89v123h89v87h386v-124h-357v-49h267v-88h90v-125h-90v-86h-385zM270 515v80h45v45h74v-45h44v-80h-74v44h-16v-44h-73z" />
    <glyph glyph-name="Scedilla" unicode="&#x15e;" 
d="M150 -11v86h-89v125h118v-87h238v138h-267v86h-89v211h89v88h296v-88h90v-124h-119v87h-238v-137h267v-86h90v-213h-90v-86h-296zM203 -193v44h-44v80h74v-43h74v21l-15 2v27h-44v88h103v-80h44v-39l15 -13v-43h-44v-44h-163z" />
    <glyph glyph-name="scedilla" unicode="&#x15f;" 
d="M61 -11v124h356v50h-267v88h-89v123h89v87h386v-124h-357v-49h267v-88h90v-125h-90v-86h-385zM203 -193v44h-44v80h74v-43h74v21l-15 2v27h-44v88h103v-80h44v-39l15 -13v-43h-44v-44h-163z" />
    <glyph glyph-name="Scaron" unicode="&#x160;" 
d="M150 -11v86h-89v125h118v-87h238v138h-267v86h-89v211h89v88h296v-88h90v-124h-119v87h-238v-137h267v-86h90v-213h-90v-86h-296zM263 689v44h-45v81h73v-44h16v44h74v-81h-44v-44h-74z" />
    <glyph glyph-name="scaron" unicode="&#x161;" 
d="M61 -11v124h356v50h-267v88h-89v123h89v87h386v-124h-357v-49h267v-88h90v-125h-90v-86h-385zM315 515v44h-45v81h73v-44h16v44h74v-81h-44v-44h-74z" />
    <glyph glyph-name="uni0162" unicode="&#x162;" 
d="M238 -11v522h-59v-87h-118v124h89v88h296v-88h90v-124h-119v87h-59v-522h-120zM203 -193v44h-44v80h74v-43h74v21l-15 2v27h-44v88h103v-80h44v-39l15 -13v-43h-44v-44h-163z" />
    <glyph glyph-name="uni0163" unicode="&#x163;" horiz-adv-x="687" 
d="M238 -11v86h-88v262h-89v124h89v175h118v-175h268v-124h-268v-224h239v87h119v-125h-90v-86h-298zM258 -193v44h-44v80h74v-43h74v21l-15 2v27h-44v88h103v-80h44v-39l15 -13v-43h-44v-44h-163z" />
    <glyph glyph-name="Tcaron" unicode="&#x164;" 
d="M238 -11v522h-59v-87h-118v124h89v88h296v-88h90v-124h-119v87h-59v-522h-120zM263 689v44h-45v81h73v-44h16v44h74v-81h-44v-44h-74z" />
    <glyph glyph-name="tcaron" unicode="&#x165;" horiz-adv-x="687" 
d="M238 -11v86h-88v262h-89v124h89v175h118v-175h268v-124h-268v-224h239v87h119v-125h-90v-86h-298zM578 424v61l16 -5v31h-60v125h118v-88h45v-80h-45v-44h-74z" />
    <glyph glyph-name="Tbar" unicode="&#x166;" horiz-adv-x="613" 
d="M240 -12v269h-90v115h90v147h-60v-88h-120v114h90v89h299v-89h91v-114h-120v88h-60v-147h89v-115h-89v-269h-120z" />
    <glyph glyph-name="tbar" unicode="&#x167;" horiz-adv-x="687" 
d="M238 -11v86h-88v75h-89v125h89v62h-89v124h89v175h118v-175h268v-124h-268v-62h89v-125h-89v-37h239v87h119v-125h-90v-86h-298z" />
    <glyph glyph-name="Utilde" unicode="&#x168;" 
d="M150 -11v86h-89v561h118v-523h238v523h119v-561h-90v-86h-296zM164 689v127h169v-44h17v44h76v-127h-170v45h-17v-45h-75z" />
    <glyph glyph-name="utilde" unicode="&#x169;" 
d="M150 -11v86h-89v386h118v-348h238v348h119v-386h-90v-86h-296zM164 515v127h169v-44h17v44h76v-127h-170v45h-17v-45h-75z" />
    <glyph glyph-name="Umacron" unicode="&#x16a;" 
d="M150 -11v86h-89v561h118v-523h238v523h119v-561h-90v-86h-296zM151 689v118h296v-118h-296z" />
    <glyph glyph-name="umacron" unicode="&#x16b;" 
d="M150 -11v86h-89v386h118v-348h238v348h119v-386h-90v-86h-296zM151 515v118h296v-118h-296z" />
    <glyph glyph-name="Ubreve" unicode="&#x16c;" 
d="M150 -11v86h-89v561h118v-523h238v523h119v-561h-90v-86h-296zM169 689v125h73v-44h112v44h72v-125h-257z" />
    <glyph glyph-name="ubreve" unicode="&#x16d;" 
d="M150 -11v86h-89v386h118v-348h238v348h119v-386h-90v-86h-296zM169 515v125h73v-44h112v44h72v-125h-257z" />
    <glyph glyph-name="Uring" unicode="&#x16e;" 
d="M150 -11v86h-89v561h118v-523h238v523h119v-561h-90v-86h-296zM240 689v125h117v-125h-117zM273 722h51v59h-51v-59z" />
    <glyph glyph-name="uring" unicode="&#x16f;" 
d="M150 -11v86h-89v386h118v-348h238v348h119v-386h-90v-86h-296zM240 515v125h117v-125h-117zM273 548h51v59h-51v-59z" />
    <glyph glyph-name="Uhungarumlaut" unicode="&#x170;" 
d="M150 -11v86h-89v561h118v-523h238v523h119v-561h-90v-86h-296zM366 689v42h-44v44h-45v81h73v-44h46v-43h44v-80h-74zM203 689v42h-45v44h-44v81h73v-44h45v-43h44v-80h-73z" />
    <glyph glyph-name="uhungarumlaut" unicode="&#x171;" 
d="M150 -11v86h-89v386h118v-348h238v348h119v-386h-90v-86h-296zM366 515v42h-44v44h-45v81h73v-44h46v-43h44v-80h-74zM203 515v42h-45v44h-44v81h73v-44h45v-43h44v-80h-73z" />
    <glyph glyph-name="Uogonek" unicode="&#x172;" 
d="M150 -11v86h-89v561h118v-523h238v523h119v-561h-90v-86h-296zM225 -204v44h-44v80h44v30l15 -1v79h104v-101h-45v-21l-15 -6v-23h75v43h73v-80h-44v-44h-163z" />
    <glyph glyph-name="uogonek" unicode="&#x173;" 
d="M150 -11v86h-89v386h118v-348h238v348h119v-386h-90v-86h-296zM230 -197v44h-44v80h44v30l15 -1v79h104v-101h-45v-21l-15 -6v-23h75v43h73v-80h-44v-44h-163z" />
    <glyph glyph-name="Wcircumflex" unicode="&#x174;" horiz-adv-x="775" 
d="M150 -11v86h-89v561h118v-523h59v175h90v260h118v-260h90v-175h61v523h117v-561h-88v-86h-119v86h-90v176h-59v-176h-90v-86h-118zM307 689v80h45v45h74v-45h44v-80h-74v44h-16v-44h-73z" />
    <glyph glyph-name="wcircumflex" unicode="&#x175;" horiz-adv-x="775" 
d="M61 -11v472h118v-348h149v348h118v-348h151v348h117v-386h-88v-86h-209v86h-59v-86h-297zM307 515v80h45v45h74v-45h44v-80h-74v44h-16v-44h-73z" />
    <glyph glyph-name="Ycircumflex" unicode="&#x176;" 
d="M238 -11v348h-88v87h-89v212h118v-175h89v-87h60v87h89v175h119v-212h-90v-87h-88v-348h-120zM218 689v80h45v45h74v-45h44v-80h-74v44h-16v-44h-73z" />
    <glyph glyph-name="ycircumflex" unicode="&#x177;" 
d="M150 -186v87h-89v124h118v-87h239v137h-268v88h-89v298h118v-261h239v261h118v-560h-89v-87h-297zM218 515v80h45v45h74v-45h44v-80h-74v44h-16v-44h-73z" />
    <glyph glyph-name="Ydieresis" unicode="&#x178;" 
d="M238 -11v348h-88v87h-89v212h118v-175h89v-87h60v87h89v175h119v-212h-90v-87h-88v-348h-120zM139 685v125h120v-125h-120zM348 685v125h119v-125h-119z" />
    <glyph glyph-name="Zacute" unicode="&#x179;" 
d="M150 -11v86h-89v213h89v86h267v137h-238v-87h-118v212h385v-88h90v-211h-90v-86h-267v-138h238v87h119v-211h-386zM212 689v80h44v43h46v44h73v-81h-45v-44h-44v-42h-74z" />
    <glyph glyph-name="zacute" unicode="&#x17a;" 
d="M61 -11v124h89v87h88v88h90v49h-267v124h475v-124h-90v-86h-88v-88h-90v-50h268v-124h-475zM212 515v80h44v43h46v44h73v-81h-45v-44h-44v-42h-74z" />
    <glyph glyph-name="Zdotaccent" unicode="&#x17b;" 
d="M150 -11v86h-89v213h89v86h267v137h-238v-87h-118v212h385v-88h90v-211h-90v-86h-267v-138h238v87h119v-211h-386zM240 689v125h120v-125h-120z" />
    <glyph glyph-name="zdotaccent" unicode="&#x17c;" 
d="M61 -11v124h89v87h88v88h90v49h-267v124h475v-124h-90v-86h-88v-88h-90v-50h268v-124h-475zM240 515v125h120v-125h-120z" />
    <glyph glyph-name="Zcaron" unicode="&#x17d;" 
d="M150 -11v86h-89v213h89v86h267v137h-238v-87h-118v212h385v-88h90v-211h-90v-86h-267v-138h238v87h119v-211h-386zM263 689v44h-45v81h73v-44h16v44h74v-81h-44v-44h-74z" />
    <glyph glyph-name="zcaron" unicode="&#x17e;" 
d="M61 -11v124h89v87h88v88h90v49h-267v124h475v-124h-90v-86h-88v-88h-90v-50h268v-124h-475zM263 515v44h-45v81h73v-44h16v44h74v-81h-44v-44h-74z" />
    <glyph glyph-name="florin" unicode="&#x192;" 
d="M-32 -99v125h91v522h89v88h296v-88h90v-124h-119v87h-238v-137h179v-123h-179v-350h-209z" />
    <glyph glyph-name="AEacute" unicode="&#x1fc;" horiz-adv-x="954" 
d="M61 -11v472h89v87h88v88h120v-88h149v88h297v-88h89v-124h-119v87h-238v-137h178v-123h-178v-138h238v87h119v-125h-89v-86h-387v174h-238v-174h-118zM179 288h238v136h-89v87h-60v-87h-89v-136zM406 666v80h44v43h46v44h73v-81h-45v-44h-44v-42h-74z" />
    <glyph glyph-name="aeacute" unicode="&#x1fd;" horiz-adv-x="1133" 
d="M150 -11v86h-89v299h89v87h296v-87h90v-261h61v261h90v87h296v-87h89v-123h-118v86h-239v-49h179v-125h-179v-50h239v88h118v-125h-89v-87h-296v86h-61v-86h-119v86h-61v-86h-296zM179 113h238v224h-238v-224zM530 515v80h44v43h46v44h73v-81h-45v-44h-44v-42h-74z" />
    <glyph glyph-name="Oslashacute" unicode="&#x1fe;" horiz-adv-x="610" 
d="M40 -52l400 722h119l-400 -722h-119zM155 -11v86h-89v473h89v88h297v-88h90v-473h-90v-86h-297zM185 113h238v398h-238v-398zM218 754v80h44v43h46v44h73v-81h-45v-44h-44v-42h-74z" />
    <glyph glyph-name="oslashacute" unicode="&#x1ff;" 
d="M32 -69l410 600h120l-410 -600h-120zM150 -11v86h-89v299h89v87h296v-87h90v-299h-90v-86h-296zM179 113h238v224h-238v-224zM212 515v80h44v43h46v44h73v-81h-45v-44h-44v-42h-74z" />
    <glyph glyph-name="uni0218" unicode="&#x218;" 
d="M150 -11v86h-89v125h118v-87h238v138h-267v86h-89v211h89v88h296v-88h90v-124h-119v87h-238v-137h267v-86h90v-213h-90v-86h-296zM279 -258v61l16 1v25h-60v125h118v-88h45v-79h-45v-45h-74z" />
    <glyph glyph-name="uni0219" unicode="&#x219;" 
d="M61 -11v124h356v50h-267v88h-89v123h89v87h386v-124h-357v-49h267v-88h90v-125h-90v-86h-385zM279 -258v61l16 1v25h-60v125h118v-88h45v-79h-45v-45h-74z" />
    <glyph glyph-name="uni021A" unicode="&#x21a;" 
d="M238 -11v522h-59v-87h-118v124h89v88h296v-88h90v-124h-119v87h-59v-522h-120zM279 -258v61l16 1v25h-60v125h118v-88h45v-79h-45v-45h-74z" />
    <glyph glyph-name="uni021B" unicode="&#x21b;" horiz-adv-x="687" 
d="M238 -11v86h-88v262h-89v124h89v175h118v-175h268v-124h-268v-224h239v87h119v-125h-90v-86h-298zM334 -258v61l16 1v25h-60v125h118v-88h45v-79h-45v-45h-74z" />
    <glyph glyph-name="uni0237" unicode="&#x237;" horiz-adv-x="508" 
d="M150 -12v87h-89v125h118v-87h149v348h119v-386h-89v-87h-208z" />
    <glyph glyph-name="circumflex" unicode="&#x2c6;" horiz-adv-x="300" 
d="M68 515v80h45v45h74v-45h44v-80h-74v44h-16v-44h-73z" />
    <glyph glyph-name="caron" unicode="&#x2c7;" horiz-adv-x="300" 
d="M113 515v44h-45v81h73v-44h16v44h74v-81h-44v-44h-74z" />
    <glyph glyph-name="breve" unicode="&#x2d8;" horiz-adv-x="300" 
d="M19 520v125h73v-44h113v44h72v-125h-258z" />
    <glyph glyph-name="dotaccent" unicode="&#x2d9;" horiz-adv-x="300" 
d="M100 521v125h119v-125h-119z" />
    <glyph glyph-name="ring" unicode="&#x2da;" horiz-adv-x="300" 
d="M89 521v125h117v-125h-117zM122 554h51v59h-51v-59z" />
    <glyph glyph-name="ogonek" unicode="&#x2db;" horiz-adv-x="300" 
d="M69 -193v44h-44v80h44v23l15 6v79h103v-101h-44v-21l-15 -6v-23h75v43h73v-80h-44v-44h-163z" />
    <glyph glyph-name="tilde" unicode="&#x2dc;" horiz-adv-x="300" 
d="M19 515v127h169v-44h17v44h76v-127h-170v45h-17v-45h-75z" />
    <glyph glyph-name="hungarumlaut" unicode="&#x2dd;" horiz-adv-x="369" 
d="M264 516v42h-45v44h-44v81h73v-44h45v-43h45v-80h-74zM100 516v42h-44v44h-45v81h73v-44h46v-43h44v-80h-74z" />
    <glyph glyph-name="gravecomb" unicode="&#x300;" horiz-adv-x="0" 
d="M149 515v42h-45v44h-44v81h73v-44h45v-43h45v-80h-74z" />
    <glyph glyph-name="acutecomb" unicode="&#x301;" horiz-adv-x="0" 
d="M69 515v80h44v43h46v44h73v-81h-45v-44h-44v-42h-74z" />
    <glyph glyph-name="uni0302" unicode="&#x302;" horiz-adv-x="0" 
d="M68 515v80h45v45h74v-45h44v-80h-74v44h-16v-44h-73z" />
    <glyph glyph-name="tildecomb" unicode="&#x303;" horiz-adv-x="0" 
d="M19 515v127h169v-44h17v44h76v-127h-170v45h-17v-45h-75z" />
    <glyph glyph-name="uni0304" unicode="&#x304;" horiz-adv-x="0" 
d="M2 515v118h296v-118h-296z" />
    <glyph glyph-name="uni0306" unicode="&#x306;" horiz-adv-x="0" 
d="M22 515v125h73v-44h112v44h72v-125h-257z" />
    <glyph glyph-name="uni0307" unicode="&#x307;" horiz-adv-x="0" 
d="M90 515v125h120v-125h-120z" />
    <glyph glyph-name="uni0308" unicode="&#x308;" horiz-adv-x="0" 
d="M-14 511v125h120v-125h-120zM195 511v125h119v-125h-119z" />
    <glyph glyph-name="uni030A" unicode="&#x30a;" horiz-adv-x="0" 
d="M92 515v125h117v-125h-117zM125 548h51v59h-51v-59z" />
    <glyph glyph-name="uni030B" unicode="&#x30b;" horiz-adv-x="0" 
d="M239 515v42h-44v44h-45v81h73v-44h46v-43h44v-80h-74zM76 515v42h-45v44h-44v81h73v-44h45v-43h44v-80h-73z" />
    <glyph glyph-name="uni030C" unicode="&#x30c;" horiz-adv-x="0" 
d="M113 515v44h-45v81h73v-44h16v44h74v-81h-44v-44h-74z" />
    <glyph glyph-name="uni0312" unicode="&#x312;" horiz-adv-x="0" 
d="M113 515v87h-45v80h45v44h74v-61l-16 1v-26h60v-125h-118z" />
    <glyph glyph-name="uni0326" unicode="&#x326;" horiz-adv-x="0" 
d="M132 -258v61l16 1v25h-60v125h118v-88h45v-79h-45v-45h-74z" />
    <glyph glyph-name="uni0327" unicode="&#x327;" horiz-adv-x="0" 
d="M68 -193v44h-44v80h74v-43h74v21l-15 2v27h-44v88h103v-80h44v-39l15 -13v-43h-44v-44h-163z" />
    <glyph glyph-name="uni0328" unicode="&#x328;" horiz-adv-x="0" 
d="M68 -193v44h-44v80h44v30l15 -1v79h104v-101h-45v-21l-15 -6v-23h75v43h73v-80h-44v-44h-163z" />
    <glyph glyph-name="Alphatonos" unicode="&#x386;" 
d="M61 -11v472h89v87h88v88h120v-88h88v-87h90v-472h-119v174h-238v-174h-118zM179 288h238v136h-89v87h-60v-87h-89v-136zM260 666v71l97 97h63v-71l-96 -97h-64z" />
    <glyph glyph-name="Epsilontonos" unicode="&#x388;" 
d="M150 -11v86h-89v473h89v88h296v-88h90v-124h-119v87h-238v-137h179v-123h-179v-138h238v87h119v-125h-90v-86h-296zM260 666v71l97 97h63v-71l-96 -97h-64z" />
    <glyph glyph-name="Etatonos" unicode="&#x389;" 
d="M61 -11v647h118v-262h59v87h120v-87h59v262h119v-647h-119v262h-238v-262h-118zM262 666v125h73v-125h-73z" />
    <glyph glyph-name="Iotatonos" unicode="&#x38a;" horiz-adv-x="419" 
d="M61 -11v124h89v398h-89v125h297v-125h-90v-398h90v-124h-297zM175 666v125h73v-125h-73z" />
    <glyph glyph-name="Iotatonos" unicode="&#x3af;" horiz-adv-x="419" 
d="M61 -11v124h89v398h-89v125h297v-125h-90v-398h90v-124h-297zM175 666v125h73v-125h-73z" />
    <glyph glyph-name="Omicrontonos" unicode="&#x38c;" 
d="M150 -11v86h-89v473h89v88h296v-88h90v-473h-90v-86h-296zM179 113h238v398h-238v-398zM262 666v125h73v-125h-73z" />
    <glyph glyph-name="Upsilontonos" unicode="&#x38e;" 
d="M238 -11v348h-88v87h-89v212h118v-175h89v-87h60v87h89v175h119v-212h-90v-87h-88v-348h-120zM262 666v125h73v-125h-73z" />
    <glyph glyph-name="Omegatonos" unicode="&#x38f;" horiz-adv-x="594" 
d="M0 -12v125h59v435h89v87h297v-87h90v-435h58v-125h-177v523h-238v-523h-178zM258 666v71l98 97h63v-71l-97 -97h-64z" />
    <glyph glyph-name="Alpha" unicode="&#x391;" 
d="M61 -11v472h89v87h88v88h120v-88h88v-87h90v-472h-119v174h-238v-174h-118zM179 288h238v136h-89v87h-60v-87h-89v-136z" />
    <glyph glyph-name="Beta" unicode="&#x392;" 
d="M150 -11v86h-89v473h89v88h296v-88h90v-211h-90v-49h90v-213h-90v-86h-296zM179 113h238v138h-179v123h179v137h-238v-398z" />
    <glyph glyph-name="Gamma" unicode="&#x393;" horiz-adv-x="507" 
d="M61 -11v647h385v-125h-267v-522h-118z" />
    <glyph glyph-name="Epsilon" unicode="&#x395;" 
d="M150 -11v86h-89v473h89v88h296v-88h90v-124h-119v87h-238v-137h179v-123h-179v-138h238v87h119v-125h-90v-86h-296z" />
    <glyph glyph-name="Zeta" unicode="&#x396;" 
d="M150 -11v86h-89v213h89v86h267v137h-238v-87h-118v212h385v-88h90v-211h-90v-86h-267v-138h238v87h119v-211h-386z" />
    <glyph glyph-name="Eta" unicode="&#x397;" 
d="M61 -11v647h118v-262h59v87h120v-87h59v262h119v-647h-119v262h-238v-262h-118z" />
    <glyph glyph-name="Theta" unicode="&#x398;" 
d="M150 -11v86h-89v473h89v88h296v-88h90v-473h-90v-86h-296zM179 113h238v398h-238v-398zM220 259v90h157v-90h-157z" />
    <glyph glyph-name="Iota" unicode="&#x399;" horiz-adv-x="419" 
d="M61 -11v124h89v398h-89v125h297v-125h-90v-398h90v-124h-297z" />
    <glyph glyph-name="Kappa" unicode="&#x39a;" 
d="M61 -11v559h89v88h118v-125h-89v-137h59v87h91v87h88v88h119v-125h-90v-87h-88v-87h-90v-49h90v-88h88v-87h90v-124h-119v86h-88v88h-91v88h-59v-262h-118z" />
    <glyph glyph-name="Lambda" unicode="&#x39b;" 
d="M61 -11v385h89v175h88v87h120v-87h88v-175h90v-385h-119v348h-89v175h-60v-175h-89v-348h-118z" />
    <glyph glyph-name="Mu" unicode="&#x39c;" horiz-adv-x="775" 
d="M61 -11v559h89v88h118v-88h90v-174h59v174h90v88h119v-88h88v-559h-117v522h-61v-174h-90v-262h-118v262h-90v174h-59v-522h-118z" />
    <glyph glyph-name="Mu" unicode="&#x3bc;" horiz-adv-x="775" 
d="M61 -11v559h89v88h118v-88h90v-174h59v174h90v88h119v-88h88v-559h-117v522h-61v-174h-90v-262h-118v262h-90v174h-59v-522h-118z" />
    <glyph glyph-name="Nu" unicode="&#x39d;" 
d="M61 -11v647h118v-88h88v-87h91v-261h59v436h119v-647h-119v86h-88v88h-91v261h-59v-435h-118z" />
    <glyph glyph-name="Xi" unicode="&#x39e;" horiz-adv-x="418" 
d="M61 511v125h296v-125h-296zM61 -11v125h296v-125h-296zM61 250v124h296v-124h-296z" />
    <glyph glyph-name="Omicron" unicode="&#x39f;" 
d="M150 -11v86h-89v473h89v88h296v-88h90v-473h-90v-86h-296zM179 113h238v398h-238v-398z" />
    <glyph glyph-name="Pi" unicode="&#x3a0;" 
d="M61 -11v645h475v-645h-119v520h-238v-520h-118z" />
    <glyph glyph-name="Rho" unicode="&#x3a1;" 
d="M61 -11v559h89v88h296v-88h90v-297h-90v-88h-267v-174h-118zM179 288h238v223h-238v-223z" />
    <glyph glyph-name="Sigma" unicode="&#x3a3;" horiz-adv-x="775" 
d="M150 -12v87h-89v124h89v88h178v49h-178v87h-89v125h89v87h564v-124h-535v-51h179v-87h268v-123h-268v-88h-179v-49h535v-125h-564z" />
    <glyph glyph-name="Tau" unicode="&#x3a4;" 
d="M238 -11v522h-59v-87h-118v124h89v88h296v-88h90v-124h-119v87h-59v-522h-120z" />
    <glyph glyph-name="Upsilon" unicode="&#x3a5;" 
d="M238 -11v348h-88v87h-89v212h118v-175h89v-87h60v87h89v175h119v-212h-90v-87h-88v-348h-120z" />
    <glyph glyph-name="Phi" unicode="&#x3a6;" 
d="M235 -10v75h-85v87h-89v299h89v87h85v99h120v-99h91v-87h90v-299h-90v-86h-91v-76h-120zM265 103h60v49h-60v-49zM179 189h56v225h-56v-225zM355 189h62v225h-62v-225zM265 451h60v50h-60v-50z" />
    <glyph glyph-name="Chi" unicode="&#x3a7;" 
d="M61 -11v124h89v175h88v49h-88v174h-89v125h118v-88h89v-174h60v174h89v88h119v-125h-90v-174h-88v-49h88v-175h90v-124h-119v86h-89v176h-60v-176h-89v-86h-118z" />
    <glyph glyph-name="Psi" unicode="&#x3a8;" 
d="M235 -11v210h-85v86h-89v349h118v-311h56v313h120v-313h62v311h119v-349h-90v-86h-91v-210h-120z" />
    <glyph glyph-name="Iotadieresis" unicode="&#x3aa;" horiz-adv-x="418" 
d="M60 -11v124h89v398h-89v125h297v-125h-90v-398h90v-124h-297zM47 677v125h118v-125h-118zM255 677v125h120v-125h-120z" />
    <glyph glyph-name="Iotadieresis" unicode="&#x3ca;" horiz-adv-x="418" 
d="M60 -11v124h89v398h-89v125h297v-125h-90v-398h90v-124h-297zM47 677v125h118v-125h-118zM255 677v125h120v-125h-120z" />
    <glyph glyph-name="Upsilondieresis" unicode="&#x3ab;" 
d="M238 -11v348h-88v87h-89v212h118v-175h89v-87h60v87h89v175h119v-212h-90v-87h-88v-348h-120zM165 666v125h73v-125h-73zM360 666v125h72v-125h-72z" />
    <glyph glyph-name="Upsilondieresis" unicode="&#x3cb;" 
d="M238 -11v348h-88v87h-89v212h118v-175h89v-87h60v87h89v175h119v-212h-90v-87h-88v-348h-120zM165 666v125h73v-125h-73zM360 666v125h72v-125h-72z" />
    <glyph glyph-name="alphatonos" unicode="&#x3ac;" 
d="M417 -76v65h-267v86h-89v299h89v87h296v-87h90v-450h-119zM179 113h238v224h-238v-224zM262 509v125h73v-125h-73z" />
    <glyph glyph-name="epsilontonos" unicode="&#x3ad;" 
d="M150 -11v86h-89v299h89v87h296v-87h90v-123h-119v86h-238v-49h179v-125h-179v-50h238v88h119v-125h-90v-87h-296zM262 509v125h73v-125h-73z" />
    <glyph glyph-name="etatonos" unicode="&#x3ae;" 
d="M417 -186v523h-238v-348h-118v472h385v-87h90v-560h-119zM262 509v125h73v-125h-73z" />
    <glyph glyph-name="alpha" unicode="&#x3b1;" 
d="M417 -76v65h-267v86h-89v299h89v87h296v-87h90v-450h-119zM179 113h238v224h-238v-224z" />
    <glyph glyph-name="beta" unicode="&#x3b2;" 
d="M61 -186v822h385v-88h90v-211h-90v-49h90v-213h-90v-86h-208v124h179v138h-179v123h179v137h-238v-697h-118z" />
    <glyph glyph-name="gamma" unicode="&#x3b3;" horiz-adv-x="587" 
d="M229 -11v210h-90v175h-89v87h118v-50h89v-175h61v175h88v50h120v-87h-91v-175h-88v-210h-118z" />
    <glyph glyph-name="delta" unicode="&#x3b4;" 
d="M150 -11v86h-89v299h89v87h85v87h90v88h118v-125h-88v-50h91v-87h90v-299h-90v-86h-296zM179 113h238v224h-238v-224z" />
    <glyph glyph-name="epsilon" unicode="&#x3b5;" 
d="M150 -11v86h-89v299h89v87h296v-87h90v-123h-119v86h-238v-49h179v-125h-179v-50h238v88h119v-125h-90v-87h-296z" />
    <glyph glyph-name="zeta" unicode="&#x3b6;" 
d="M327 -182v123h90v48h-267v87h-89v212h89v86h267v138h-267v124h296v-87h90v-212h-90v-86h-267v-137h238v86h119v-382h-209z" />
    <glyph glyph-name="eta" unicode="&#x3b7;" 
d="M417 -186v523h-238v-348h-118v472h385v-87h90v-560h-119z" />
    <glyph glyph-name="theta" unicode="&#x3b8;" 
d="M150 -11v86h-89v299h89v87h296v-87h90v-299h-90v-86h-296zM179 113h238v224h-238v-224zM222 174v89h153v-89h-153z" />
    <glyph glyph-name="iota" unicode="&#x3b9;" horiz-adv-x="240" 
d="M61 -11v472h118v-472h-118zM61 511v125h118v-125h-118z" />
    <glyph glyph-name="kappa" unicode="&#x3ba;" 
d="M61 -11v647h118v-348h59v86h179v87h119v-124h-90v-86h-178v-51h178v-87h90v-124h-119v86h-179v88h-59v-174h-118z" />
    <glyph glyph-name="lambda" unicode="&#x3bb;" 
d="M61 -11v211h89v88h88v348h120v-348h88v-88h90v-211h-119v174h-89v88h-60v-88h-89v-174h-118z" />
    <glyph glyph-name="nu" unicode="&#x3bd;" horiz-adv-x="587" 
d="M229 -11v86h-90v176h-89v210h118v-173h89v-175h61v175h88v173h120v-210h-91v-176h-88v-86h-118z" />
    <glyph glyph-name="xi" unicode="&#x3be;" horiz-adv-x="596" 
d="M237 -184v123h179v50h-268v86h-89v213h89v49h-89v174h-59v124h445v-87h90v-124h-119v87h-238v-137h267v-123h-267v-138h238v87h119v-384h-298z" />
    <glyph glyph-name="omicron" unicode="&#x3bf;" 
d="M150 -11v86h-89v299h89v87h296v-87h90v-299h-90v-86h-296zM179 113h238v224h-238v-224z" />
    <glyph glyph-name="pi" unicode="&#x3c0;" horiz-adv-x="954" 
d="M238 -11v347h-59v-86h-118v123h89v87h296v-87h61v87h297v-87h89v-123h-119v86h-60v-347h-118v347h-60v-86h-119v86h-59v-347h-120z" />
    <glyph glyph-name="rho" unicode="&#x3c1;" 
d="M61 -181v555h89v87h296v-87h90v-299h-90v-86h-267v-170h-118zM179 113h238v224h-238v-224z" />
    <glyph glyph-name="sigma" unicode="&#x3c3;" horiz-adv-x="596" 
d="M150 -11v86h-89v299h89v87h443v-124h-57v-262h-90v-86h-296zM179 113h238v224h-238v-224z" />
    <glyph glyph-name="tau" unicode="&#x3c4;" 
d="M238 -11v348h-59v-86h-118v123h89v87h296v-87h90v-123h-119v86h-59v-348h-120z" />
    <glyph glyph-name="upsilon" unicode="&#x3c5;" 
d="M150 -11v86h-89v386h118v-348h238v348h119v-386h-90v-86h-296zM260 494v73l97 96h63v-71l-96 -98h-64z" />
    <glyph glyph-name="phi" unicode="&#x3c6;" 
d="M235 -11v87h-85v87h-89v298h89v88h85v87h120v-87h91v-88h90v-298h-90v-87h-91v-87h-120zM179 200h56v224h-56v-224zM355 200h62v224h-62v-224z" />
    <glyph glyph-name="chi" unicode="&#x3c7;" 
d="M61 -11v124h89v87h88v51h-88v86h-89v124h118v-87h89v-86h60v86h89v87h119v-124h-90v-86h-88v-51h88v-87h90v-124h-119v86h-89v88h-60v-88h-89v-86h-118z" />
    <glyph glyph-name="psi" unicode="&#x3c8;" 
d="M235 -11v86h-85v87h-89v386h118v-349h56v437h120v-437h62v349h119v-386h-90v-87h-91v-86h-120z" />
    <glyph glyph-name="omega" unicode="&#x3c9;" horiz-adv-x="775" 
d="M61 -11v472h118v-348h149v348h118v-348h151v348h117v-386h-88v-86h-209v86h-59v-86h-297z" />
    <glyph glyph-name="omicrontonos" unicode="&#x3cc;" 
d="M150 -11v86h-89v299h89v87h296v-87h90v-299h-90v-86h-296zM179 113h238v224h-238v-224zM262 509v125h73v-125h-73z" />
    <glyph glyph-name="upsilontonos" unicode="&#x3cd;" 
d="M150 -11v86h-89v386h118v-348h238v348h119v-386h-90v-86h-296zM262 509v125h73v-125h-73z" />
    <glyph glyph-name="omegatonos" unicode="&#x3ce;" horiz-adv-x="775" 
d="M61 -11v472h118v-348h149v348h118v-348h151v348h117v-386h-88v-86h-209v86h-59v-86h-297zM350 509v125h72v-125h-72z" />
    <glyph glyph-name="uni0401" unicode="&#x401;" 
d="M150 -11v86h-89v473h89v88h296v-88h90v-124h-119v87h-238v-137h179v-123h-179v-138h238v87h119v-125h-90v-86h-296zM165 651v125h73v-125h-73zM360 651v125h72v-125h-72z" />
    <glyph glyph-name="uni0402" unicode="&#x402;" horiz-adv-x="594" 
d="M148 -11v86h-89v436h-98v125h315v-125h-99v-50h267v-87h90v-299h-90v-86h-296zM177 113h238v224h-238v-224z" />
    <glyph glyph-name="uni0403" unicode="&#x403;" horiz-adv-x="507" 
d="M61 -11v645h385v-125h-267v-520h-118z" />
    <glyph glyph-name="uni0404" unicode="&#x404;" 
d="M150 -11v86h-89v213h89v49h-89v211h89v88h296v-88h90v-124h-119v87h-238v-137h267v-123h-267v-138h238v87h119v-125h-90v-86h-296z" />
    <glyph glyph-name="uni0405" unicode="&#x405;" 
d="M61 -11v124h356v50h-267v88h-89v123h89v87h386v-124h-357v-49h267v-88h90v-125h-90v-86h-385z" />
    <glyph glyph-name="uni0407" unicode="&#x407;" horiz-adv-x="294" 
d="M87 -11v471h119v-471h-119zM-20 510v125h119v-125h-119zM195 510v125h118v-125h-118z" />
    <glyph glyph-name="uni0408" unicode="&#x408;" 
d="M150 -11v86h-89v213h118v-175h238v398h-267v125h296v-88h90v-473h-90v-86h-296z" />
    <glyph glyph-name="uni0409" unicode="&#x409;" horiz-adv-x="686" 
d="M61 -11v125h88v520h476v-645h-119v520h-238v-520h-207z" />
    <glyph glyph-name="uni040A" unicode="&#x40a;" horiz-adv-x="954" 
d="M61 -11v647h118v-262h238v262h119v-175h267v-87h90v-299h-89v-86h-387v262h-238v-262h-118zM536 113h238v224h-238v-224z" />
    <glyph glyph-name="uni040B" unicode="&#x40b;" horiz-adv-x="594" 
d="M59 -11v520h-98v125h315v-125h-99v-135h59v87h208v-87h90v-385h-119v348h-149v-86h-89v-262h-118z" />
    <glyph glyph-name="uni040C" unicode="&#x40c;" 
d="M61 -11v559h89v88h118v-125h-89v-137h59v87h91v87h88v88h119v-125h-90v-87h-88v-87h-90v-49h90v-88h88v-87h90v-124h-119v86h-88v88h-91v88h-59v-262h-118z" />
    <glyph glyph-name="uni040E" unicode="&#x40e;" 
d="M238 -11v348h-88v87h-89v212h118v-175h89v-87h60v87h89v175h119v-212h-90v-87h-88v-348h-120zM168 666v125h73v-44h122v44h72v-125h-267z" />
    <glyph glyph-name="uni040F" unicode="&#x40f;" 
d="M237 -99v88h-176v646h118v-521h238v521h119v-646h-180v-88h-119z" />
    <glyph glyph-name="uni0410" unicode="&#x410;" 
d="M61 -11v472h89v87h88v88h120v-88h88v-87h90v-472h-119v174h-238v-174h-118zM179 288h238v136h-89v87h-60v-87h-89v-136z" />
    <glyph glyph-name="uni0411" unicode="&#x411;" 
d="M150 -11v86h-89v561h385v-88h90v-124h-119v87h-238v-137h267v-86h90v-213h-90v-86h-296zM179 113h238v138h-238v-138z" />
    <glyph glyph-name="uni0412" unicode="&#x412;" 
d="M150 -11v86h-89v473h89v88h296v-88h90v-211h-90v-49h90v-213h-90v-86h-296zM179 113h238v138h-179v123h179v137h-238v-398z" />
    <glyph glyph-name="uni0413" unicode="&#x413;" horiz-adv-x="507" 
d="M61 -11v645h385v-125h-267v-520h-118z" />
    <glyph glyph-name="uni0414" unicode="&#x414;" horiz-adv-x="686" 
d="M61 -11v300h88v345h476v-645h-119v87h-327v-87h-118zM268 201h238v308h-238v-308z" />
    <glyph glyph-name="uni0415" unicode="&#x415;" 
d="M150 -11v86h-89v473h89v88h296v-88h90v-124h-119v87h-238v-137h179v-123h-179v-138h238v87h119v-125h-90v-86h-296z" />
    <glyph glyph-name="uni0416" unicode="&#x416;" horiz-adv-x="954" 
d="M61 -11v125h89v86h88v88h90v49h-90v87h-88v87h-89v125h118v-88h88v-87h91v-87h59v262h119v-262h60v87h90v87h88v88h119v-125h-90v-87h-89v-87h-89v-49h89v-88h89v-86h90v-125h-119v87h-88v87h-90v88h-60v-262h-119v262h-59v-88h-91v-87h-88v-87h-118z" />
    <glyph glyph-name="uni0417" unicode="&#x417;" 
d="M150 -11v86h-89v125h118v-87h238v138h-267v123h267v137h-238v-87h-118v124h89v88h296v-88h90v-211h-90v-49h90v-213h-90v-86h-296z" />
    <glyph glyph-name="uni0418" unicode="&#x418;" 
d="M61 -11v647h118v-436h59v261h91v87h88v88h119v-647h-119v435h-59v-261h-91v-88h-88v-86h-118z" />
    <glyph glyph-name="uni0419" unicode="&#x419;" 
d="M61 -11v647h118v-436h59v261h91v87h88v88h119v-647h-119v435h-59v-261h-91v-88h-88v-86h-118zM168 666v125h73v-44h112v44h72v-125h-257z" />
    <glyph glyph-name="uni041A" unicode="&#x41a;" 
d="M61 -11v559h89v88h118v-125h-89v-137h59v87h91v87h88v88h119v-125h-90v-87h-88v-87h-90v-49h90v-88h88v-87h90v-124h-119v86h-88v88h-91v88h-59v-262h-118zM260 666v81h44v44h44v43h72v-81h-42v-43h-45v-44h-73z" />
    <glyph glyph-name="uni041B" unicode="&#x41b;" horiz-adv-x="686" 
d="M61 -11v125h88v520h476v-645h-119v520h-238v-520h-207z" />
    <glyph glyph-name="uni041C" unicode="&#x41c;" horiz-adv-x="775" 
d="M61 -11v559h89v88h118v-88h90v-174h59v174h90v88h119v-88h88v-559h-117v522h-61v-174h-90v-262h-118v262h-90v174h-59v-522h-118z" />
    <glyph glyph-name="uni041D" unicode="&#x41d;" 
d="M61 -11v647h118v-262h238v262h119v-647h-119v262h-238v-262h-118z" />
    <glyph glyph-name="uni0420" unicode="&#x420;" 
d="M61 -11v559h89v88h296v-88h90v-297h-90v-88h-267v-174h-118zM179 288h238v223h-238v-223z" />
    <glyph glyph-name="uni0421" unicode="&#x421;" 
d="M150 -11v86h-89v473h89v88h296v-88h90v-211h-119v174h-238v-398h238v175h119v-213h-90v-86h-296z" />
    <glyph glyph-name="uni0422" unicode="&#x422;" 
d="M238 -11v522h-59v-87h-118v124h89v88h296v-88h90v-124h-119v87h-59v-522h-120z" />
    <glyph glyph-name="uni0423" unicode="&#x423;" 
d="M238 -11v348h-88v87h-89v212h118v-175h89v-87h60v87h89v175h119v-212h-90v-87h-88v-348h-120z" />
    <glyph glyph-name="uni0424" unicode="&#x424;" 
d="M235 -11v85h-85v87h-89v298h89v88h85v89h120v-89h91v-88h90v-298h-90v-87h-91v-85h-120zM179 198h56v224h-56v-224zM355 198h62v224h-62v-224z" />
    <glyph glyph-name="uni0425" unicode="&#x425;" 
d="M61 -11v124h89v175h88v49h-88v174h-89v125h118v-88h89v-174h60v174h89v88h119v-125h-90v-174h-88v-49h88v-175h90v-124h-119v86h-89v176h-60v-176h-89v-86h-118z" />
    <glyph glyph-name="uni0426" unicode="&#x426;" 
d="M462 -98v47h15v40h-416v645h118v-520h238v520h119v-608h44v-80h-44v-44h-74z" />
    <glyph glyph-name="uni0427" unicode="&#x427;" 
d="M418 -12v261h-268v87h-89v299h118v-262h239v262h118v-647h-118z" />
    <glyph glyph-name="uni0428" unicode="&#x428;" horiz-adv-x="775" 
d="M150 -11v86h-89v561h118v-523h59v175h90v260h118v-260h90v-175h61v523h117v-561h-88v-86h-119v86h-90v176h-59v-176h-90v-86h-118z" />
    <glyph glyph-name="uni0429" unicode="&#x429;" horiz-adv-x="774" 
d="M640 -98v47h16v40h-149v86h-90v176h-59v-176h-90v-86h-118v86h-89v561h118v-523h59v175h90v260h118v-260h90v-175h61v523h117v-610h44v-80h-44v-44h-74z" />
    <glyph glyph-name="uni042A" unicode="&#x42a;" horiz-adv-x="594" 
d="M148 -11v86h-89v436h-98v125h315v-125h-99v-50h267v-87h90v-299h-90v-86h-296zM177 113h238v224h-238v-224z" />
    <glyph glyph-name="uni042B" unicode="&#x42b;" horiz-adv-x="775" 
d="M150 -11v86h-89v561h118v-263h267v-87h90v-211h-90v-86h-296zM179 113h238v136h-238v-136zM596 -11v472h118v-472h-118z" />
    <glyph glyph-name="uni042C" unicode="&#x42c;" 
d="M150 -11v86h-89v561h118v-175h267v-87h90v-299h-90v-86h-296zM179 113h238v224h-238v-224z" />
    <glyph glyph-name="uni042D" unicode="&#x42d;" 
d="M150 -11v86h-89v125h118v-87h238v138h-267v123h267v137h-238v-87h-118v124h89v88h296v-88h90v-211h-90v-49h90v-213h-90v-86h-296z" />
    <glyph glyph-name="Yucy" unicode="&#x42e;" horiz-adv-x="857" 
d="M61 -11v647h118v-262h140v174h90v88h297v-88h90v-473h-90v-86h-297v86h-90v176h-140v-262h-118zM438 113h239v398h-239v-398z" />
    <glyph glyph-name="Yacy" unicode="&#x42f;" 
d="M105 -11v124h89v50h-44v88h-89v297h89v88h296v-88h90v-559h-119v174h-105v-88h-89v-86h-118zM179 288h238v223h-238v-223z" />
    <glyph glyph-name="uni0430" unicode="&#x430;" horiz-adv-x="701" 
d="M150 -12v88h-90v238h359v27h-359v114h388v-89h92v-265h89v-113h-119v88h-62v-88h-298zM180 101h239v99h-239v-99z" />
    <glyph glyph-name="uni0431" unicode="&#x431;" 
d="M150 -11v86h-89v473h89v88h296v-88h90v-124h-119v87h-238v-137h267v-86h90v-213h-90v-86h-296zM179 113h238v138h-238v-138z" />
    <glyph glyph-name="uni0432" unicode="&#x432;" 
d="M150 -11v86h-89v299h89v87h296v-87h90v-125h-90v-50h90v-124h-90v-86h-296zM179 113h238v49h-179v124h179v51h-238v-224z" />
    <glyph glyph-name="uni0433" unicode="&#x433;" horiz-adv-x="507" 
d="M61 -11v472h385v-124h-267v-348h-118z" />
    <glyph glyph-name="uni0434" unicode="&#x434;" horiz-adv-x="686" 
d="M61 -11v300h88v172h476v-472h-119v87h-327v-87h-118zM268 201h238v136h-238v-136z" />
    <glyph glyph-name="uni0435" unicode="&#x435;" 
d="M150 -11v86h-89v299h89v87h296v-87h90v-123h-119v86h-238v-49h179v-125h-179v-50h238v88h119v-125h-90v-87h-296z" />
    <glyph glyph-name="uni0436" unicode="&#x436;" horiz-adv-x="768" 
d="M61 -11v94h57v58h60v50h57v68h-58v57h-60v57h-56v88h86v-51h60v-57h58v-58h59v166h119v-166h60v58h58v57h60v51h87v-88h-58v-57h-60v-57h-58v-68h58v-50h59v-58h59v-94h-88v56h-60v58h-57v51h-60v-165h-119v165h-59v-51h-57v-57h-60v-57h-87z" />
    <glyph glyph-name="uni0437" unicode="&#x437;" 
d="M150 -11v87h-89v125h118v-88h238v50h-179v125h179v49h-238v-86h-118v123h89v87h296v-87h90v-299h-90v-86h-296z" />
    <glyph glyph-name="uni0438" unicode="&#x438;" horiz-adv-x="567" 
d="M61 -11v472h118v-261h59v88h91v86h88v87h119v-472h-119v262h-59v-88h-91v-88h-88v-86h-118z" />
    <glyph glyph-name="uni0439" unicode="&#x439;" 
d="M61 -11v473h118v-262h59v89h91v86h88v87h119v-473h-119v263h-59v-89h-91v-88h-88v-86h-118zM177 492v125h74v-43h102v43h72v-125h-248z" />
    <glyph glyph-name="uni043A" unicode="&#x43a;" 
d="M61 -11v472h118v-173h59v86h179v87h119v-124h-90v-86h-178v-51h178v-87h90v-124h-119v86h-179v88h-59v-174h-118z" />
    <glyph glyph-name="uni043B" unicode="&#x43b;" horiz-adv-x="686" 
d="M61 -11v125h88v346h476v-471h-119v347h-238v-347h-207z" />
    <glyph glyph-name="uni043C" unicode="&#x43c;" horiz-adv-x="775" 
d="M61 -11v385h89v87h118v-87h90v-174h59v174h90v87h119v-87h88v-385h-117v348h-61v-174h-90v-88h-118v88h-90v174h-59v-348h-118z" />
    <glyph glyph-name="uni043D" unicode="&#x43d;" 
d="M61 -11v473h118v-185h238v185h119v-473h-119v164h-238v-164h-118z" />
    <glyph glyph-name="uni043E" unicode="&#x43e;" 
d="M150 -11v86h-89v299h89v87h296v-87h90v-299h-90v-86h-296zM179 113h238v224h-238v-224z" />
    <glyph glyph-name="uni043F" unicode="&#x43f;" 
d="M61 -11v472h475v-472h-119v348h-238v-348h-118z" />
    <glyph glyph-name="uni0440" unicode="&#x440;" 
d="M61 -181v555h89v87h296v-87h90v-299h-90v-86h-267v-170h-118zM179 113h238v224h-238v-224z" />
    <glyph glyph-name="uni0441" unicode="&#x441;" 
d="M150 -11v86h-89v299h89v87h296v-87h90v-123h-119v86h-238v-224h238v87h119v-125h-90v-86h-296z" />
    <glyph glyph-name="uni0442" unicode="&#x442;" 
d="M238 -11v349h-59v-86h-118v123h89v87h296v-87h90v-123h-119v86h-59v-349h-120z" />
    <glyph glyph-name="uni0443" unicode="&#x443;" 
d="M150 -186v87h-89v124h118v-87h239v137h-268v88h-89v298h118v-261h239v261h118v-560h-89v-87h-297z" />
    <glyph glyph-name="uni0444" unicode="&#x444;" horiz-adv-x="517" 
d="M180 -11v111h-70v76h-79v268h79v78h70v114h119v-114h77v-78h79v-268h-79v-77h-77v-110h-119zM139 214h41v194h-41v-194zM299 214h48v194h-48v-194z" />
    <glyph glyph-name="uni0445" unicode="&#x445;" 
d="M61 -11v124h89v87h88v51h-88v86h-89v124h118v-87h89v-86h60v86h89v87h119v-124h-90v-86h-88v-51h88v-87h90v-124h-119v86h-89v88h-60v-88h-89v-86h-118z" />
    <glyph glyph-name="uni0446" unicode="&#x446;" horiz-adv-x="610" 
d="M461 -98v47h15v40h-415v472h118v-347h238v347h119v-435h43v-80h-44v-44h-74z" />
    <glyph glyph-name="uni0447" unicode="&#x447;" 
d="M418 -12v87h-268v88h-89v298h118v-261h239v261h118v-473h-118z" />
    <glyph glyph-name="uni0448" unicode="&#x448;" horiz-adv-x="775" 
d="M61 -11v472h118v-348h149v348h118v-348h151v348h117v-472h-297v86h-59v-86h-297z" />
    <glyph glyph-name="uni0449" unicode="&#x449;" horiz-adv-x="774" 
d="M640 -98v47h16v40h-239v86h-59v-86h-297v472h118v-348h149v348h118v-348h151v348h117v-435h44v-80h-44v-44h-74z" />
    <glyph glyph-name="uni044A" unicode="&#x44a;" horiz-adv-x="596" 
d="M148 -11v86h-89v436h-59v125h178v-175h267v-87h90v-299h-90v-86h-297zM178 113h238v224h-238v-224z" />
    <glyph glyph-name="uni044B" unicode="&#x44b;" horiz-adv-x="775" 
d="M150 -11v86h-89v561h118v-175h267v-87h90v-299h-90v-86h-296zM179 113h238v224h-238v-224zM596 -11v647h118v-647h-118z" />
    <glyph glyph-name="uni044C" unicode="&#x44c;" horiz-adv-x="596" 
d="M90 -11v86h-90v561h119v-175h267v-87h90v-299h-90v-86h-296zM119 113h237v224h-237v-224z" />
    <glyph glyph-name="uni044D" unicode="&#x44d;" 
d="M150 -11v87h-89v125h118v-88h238v50h-179v125h179v49h-238v-86h-118v123h89v87h296v-87h90v-299h-90v-86h-296z" />
    <glyph glyph-name="yucy" unicode="&#x44e;" horiz-adv-x="856" 
d="M61 -11v473h118v-185h139v97h90v87h297v-87h90v-299h-90v-86h-297v86h-90v78h-139v-164h-118zM437 113h239v224h-239v-224z" />
    <glyph glyph-name="yacy" unicode="&#x44f;" 
d="M105 -11v124h89v51h-44v88h-89v122h89v87h296v-87h90v-385h-119v175h-105v-89h-89v-86h-118zM179 289h238v48h-238v-48z" />
    <glyph glyph-name="uni0451" unicode="&#x451;" 
d="M150 -11v86h-89v299h89v87h296v-87h90v-123h-119v86h-238v-49h179v-125h-179v-50h238v88h119v-125h-90v-87h-296zM133 532v125h120v-125h-120zM342 532v125h119v-125h-119z" />
    <glyph glyph-name="uni0452" unicode="&#x452;" horiz-adv-x="641" 
d="M269 -275v90h-90v114h120v-90h150v504h-150v-89h-89v-266h-121v499h-29v114h29v33h121v-33h99v-114h-99v-120h59v89h210v-89h90v-552h-90v-90h-210z" />
    <glyph glyph-name="uni0453" unicode="&#x453;" 
d="M61 -11v385h89v87h296v-87h90v-123h-119v86h-238v-348h-118zM218 520v81h44v44h44v44h73v-81h-44v-44h-44v-44h-73z" />
    <glyph glyph-name="uni0454" unicode="&#x454;" 
d="M150 -11v86h-89v299h89v87h296v-87h90v-123h-119v86h-238v-49h179v-125h-179v-50h238v88h119v-125h-90v-87h-296z" />
    <glyph glyph-name="uni0455" unicode="&#x455;" 
d="M61 -11v124h356v50h-267v88h-89v123h89v87h386v-124h-357v-49h267v-88h90v-125h-90v-86h-385z" />
    <glyph glyph-name="uni0456" unicode="&#x456;" horiz-adv-x="240" 
d="M61 -11v472h118v-472h-118zM61 511v125h118v-125h-118z" />
    <glyph glyph-name="uni0457" unicode="&#x457;" horiz-adv-x="354" 
d="M117 -11v299h119v-299h-119zM10 337v124h119v-124h-119zM225 337v124h118v-124h-118z" />
    <glyph glyph-name="uni0458" unicode="&#x458;" horiz-adv-x="508" 
d="M150 -12v87h-89v125h118v-87h149v348h119v-386h-89v-87h-208z" />
    <glyph glyph-name="uni0459" unicode="&#x459;" horiz-adv-x="944" 
d="M61 -11v125h88v346h377v-87h267v-87h90v-211h-89v-86h-387v347h-139v-347h-207zM526 113h238v136h-238v-136z" />
    <glyph glyph-name="uni045A" unicode="&#x45a;" horiz-adv-x="857" 
d="M61 -11v473h118v-185h140v185h119v-89h268v-87h90v-211h-90v-86h-387v164h-140v-164h-118zM438 113h239v136h-239v-136z" />
    <glyph glyph-name="uni045B" unicode="&#x45b;" 
d="M60 -11v645h217v-125h-99v-135h60v87h208v-87h90v-385h-120v348h-149v-86h-89v-262h-118z" />
    <glyph glyph-name="uni045C" unicode="&#x45c;" 
d="M61 -11v472h118v-173h59v86h179v87h119v-124h-90v-86h-178v-51h178v-87h90v-124h-119v86h-179v88h-59v-174h-118zM218 520v81h44v44h44v44h73v-81h-44v-44h-44v-44h-73z" />
    <glyph glyph-name="uni045E" unicode="&#x45e;" 
d="M150 -186v87h-89v124h118v-87h239v137h-268v88h-89v298h118v-261h239v261h118v-560h-89v-87h-297zM168 520v125h73v-44h122v44h72v-125h-267z" />
    <glyph glyph-name="uni045F" unicode="&#x45f;" 
d="M237 -99v88h-176v471h118v-346h238v346h119v-471h-180v-88h-119z" />
    <glyph glyph-name="Geupturncy" unicode="&#x490;" horiz-adv-x="507" 
d="M61 -11v645h267v69h118v-194h-267v-520h-118z" />
    <glyph glyph-name="geupturncy" unicode="&#x491;" 
d="M238 -11v348h-88v87h-89v212h118v-175h89v-87h60v87h89v175h119v-212h-90v-87h-88v-348h-120z" />
    <glyph glyph-name="Wgrave" unicode="&#x1e80;" horiz-adv-x="775" 
d="M150 -11v86h-89v561h118v-523h59v175h90v260h118v-260h90v-175h61v523h117v-561h-88v-86h-119v86h-90v176h-59v-176h-90v-86h-118zM352 689v42h-45v44h-44v81h73v-44h45v-43h45v-80h-74z" />
    <glyph glyph-name="wgrave" unicode="&#x1e81;" horiz-adv-x="775" 
d="M61 -11v472h118v-348h149v348h118v-348h151v348h117v-386h-88v-86h-209v86h-59v-86h-297zM352 515v42h-45v44h-44v81h73v-44h45v-43h45v-80h-74z" />
    <glyph glyph-name="Wacute" unicode="&#x1e82;" horiz-adv-x="775" 
d="M150 -11v86h-89v561h118v-523h59v175h90v260h118v-260h90v-175h61v523h117v-561h-88v-86h-119v86h-90v176h-59v-176h-90v-86h-118zM301 689v80h44v43h46v44h73v-81h-45v-44h-44v-42h-74z" />
    <glyph glyph-name="wacute" unicode="&#x1e83;" horiz-adv-x="775" 
d="M61 -11v472h118v-348h149v348h118v-348h151v348h117v-386h-88v-86h-209v86h-59v-86h-297zM301 515v80h44v43h46v44h73v-81h-45v-44h-44v-42h-74z" />
    <glyph glyph-name="Wdieresis" unicode="&#x1e84;" horiz-adv-x="775" 
d="M150 -11v86h-89v561h118v-523h59v175h90v260h118v-260h90v-175h61v523h117v-561h-88v-86h-119v86h-90v176h-59v-176h-90v-86h-118zM228 685v125h120v-125h-120zM437 685v125h119v-125h-119z" />
    <glyph glyph-name="wdieresis" unicode="&#x1e85;" horiz-adv-x="775" 
d="M61 -11v472h118v-348h149v348h118v-348h151v348h117v-386h-88v-86h-209v86h-59v-86h-297zM228 511v125h120v-125h-120zM437 511v125h119v-125h-119z" />
    <glyph glyph-name="uni1E9E" unicode="&#x1e9e;" horiz-adv-x="668" 
d="M220 -11v124h267v138h-167v123h167v137h-367v125h396v-88h90v-211h-90v-49h90v-213h-90v-86h-296zM61 -11v647h118v-647h-118z" />
    <glyph glyph-name="Ygrave" unicode="&#x1ef2;" 
d="M238 -11v348h-88v87h-89v212h118v-175h89v-87h60v87h89v175h119v-212h-90v-87h-88v-348h-120zM263 689v42h-45v44h-44v81h73v-44h45v-43h45v-80h-74z" />
    <glyph glyph-name="ygrave" unicode="&#x1ef3;" 
d="M150 -186v87h-89v124h118v-87h239v137h-268v88h-89v298h118v-261h239v261h118v-560h-89v-87h-297zM263 515v42h-45v44h-44v81h73v-44h45v-43h45v-80h-74z" />
    <glyph glyph-name="endash" unicode="&#x2013;" horiz-adv-x="418" 
d="M61 232v125h296v-125h-296z" />
    <glyph glyph-name="emdash" unicode="&#x2014;" horiz-adv-x="515" 
d="M61 232v125h393v-125h-393z" />
    <glyph glyph-name="quoteleft" unicode="&#x2018;" horiz-adv-x="284" 
d="M104 424v88h-43v79h43v45h74v-50l-15 -11v-26h60v-125h-119z" />
    <glyph glyph-name="quoteright" unicode="&#x2019;" horiz-adv-x="284" 
d="M105 424v47l15 14v26h-59v125h118v-88h44v-80h-44v-44h-74z" />
    <glyph glyph-name="quotesinglbase" unicode="&#x201a;" horiz-adv-x="284" 
d="M105 -87v56l15 6v25h-59v125h118v-88h44v-79h-44v-45h-74z" />
    <glyph glyph-name="quotedblleft" unicode="&#x201c;" horiz-adv-x="479" 
d="M299 424v88h-44v79h44v45h75v-51l-16 -10v-26h59v-125h-118zM104 424v88h-43v79h43v45h74v-51l-15 -10v-26h60v-125h-119z" />
    <glyph glyph-name="quotedblright" unicode="&#x201d;" horiz-adv-x="479" 
d="M300 424v50l15 11v26h-60v125h120v-88h42v-80h-42v-44h-75zM105 424v53l15 8v26h-59v125h118v-88h44v-80h-44v-44h-74z" />
    <glyph glyph-name="quotedblbase" unicode="&#x201e;" horiz-adv-x="479" 
d="M300 -87v52l15 10v25h-60v125h120v-88h42v-79h-42v-45h-75zM105 -87v52l15 10v25h-59v125h118v-88h44v-79h-44v-45h-74z" />
    <glyph glyph-name="dagger" unicode="&#x2020;" horiz-adv-x="418" 
d="M149 -11v399h-88v125h88v123h119v-123h89v-125h-89v-399h-119z" />
    <glyph glyph-name="bullet" unicode="&#x2022;" horiz-adv-x="275" 
d="M61 239v159h153v-159h-153z" />
    <glyph glyph-name="ellipsis" unicode="&#x2026;" horiz-adv-x="654" 
d="M267 0v125h119v-125h-119zM61 0v125h118v-125h-118zM474 0v125h118v-125h-118z" />
    <glyph glyph-name="perthousand" unicode="&#x2030;" horiz-adv-x="652" 
d="M105 333v45h-45v261h45v44h167v-44h46v-261h-46v-45h-167zM105 -59v44h-45v156h45v45h167v-45h46v-156h-46v-44h-167zM134 22h109v82h-109v-82zM379 -59v44h-46v156h46v45h167v-45h45v-156h-45v-44h-167zM407 22h109v82h-109v-82zM31 238v71h515v-71h-515zM134 415h109
v186h-109v-186z" />
    <glyph glyph-name="guilsinglleft" unicode="&#x2039;" horiz-adv-x="567" 
d="M417 -103v88h-88v87h-91v87h-88v88h-89v123h89v87h88v88h91v87h88v87h119v-125h-90v-86h-88v-88h-91v-87h-88v-49h89v-88h90v-86h88v-88h90v-125h-119z" />
    <glyph glyph-name="guilsinglright" unicode="&#x203a;" horiz-adv-x="567" 
d="M31 -103v125h89v88h89v86h89v88h90v49h-89v87h-90v88h-89v86h-89v125h118v-87h89v-87h89v-88h89v-87h90v-123h-90v-88h-89v-87h-89v-87h-89v-88h-118z" />
    <glyph glyph-name="exclamdbl" unicode="&#x203c;" horiz-adv-x="446" 
d="M265 163v473h119v-473h-119zM61 -11v124h118v-124h-118zM265 -11v124h119v-124h-119zM61 163v473h118v-473h-118z" />
    <glyph glyph-name="uni2070" unicode="&#x2070;" horiz-adv-x="379" 
d="M105 285v45h-44v260h44v46h168v-46h45v-260h-45v-45h-168zM135 368h108v186h-108v-186z" />
    <glyph glyph-name="uni2074" unicode="&#x2074;" horiz-adv-x="380" 
d="M243 284v90h-182v127h44v45h47v44h47v46h120v-352h-76zM165 456h78v98h-15v-45h-31l-8 -16h-24v-37z" />
    <glyph glyph-name="uni2075" unicode="&#x2075;" horiz-adv-x="398" 
d="M106 256v47h-46v70h75v-45h110v19h-93v47h-46v44h-46v149h46v47h168v-47h47v-116h-76v92h-110v-99h47v-45h92v-46h47v-70h-47v-47h-168z" />
    <glyph glyph-name="uni2076" unicode="&#x2076;" horiz-adv-x="398" 
d="M106 256v47h-46v284h46v47h168v-47h47v-70h-76v46h-110v-99h139v-45h47v-116h-47v-47h-168zM135 328h110v66h-110v-66z" />
    <glyph glyph-name="uni2077" unicode="&#x2077;" horiz-adv-x="380" 
d="M243 284v270h-108v-45h-74v81h44v46h168v-46h46v-306h-76z" />
    <glyph glyph-name="uni2078" unicode="&#x2078;" horiz-adv-x="398" 
d="M106 256v47h-46v116h46v19h-46v149h46v47h168v-47h47v-149h-47v-19h47v-116h-47v-47h-168zM135 328h110v66h-110v-66zM135 464h110v99h-110v-99z" />
    <glyph glyph-name="uni2079" unicode="&#x2079;" horiz-adv-x="398" 
d="M106 256v47h-46v70h75v-45h110v66h-139v44h-46v149h46v47h168v-47h47v-284h-47v-47h-168zM135 464h110v99h-110v-99z" />
    <glyph glyph-name="uni2080" unicode="&#x2080;" horiz-adv-x="379" 
d="M105 -12v45h-44v260h44v45h168v-45h45v-260h-45v-45h-168zM135 70h108v187h-108v-187z" />
    <glyph glyph-name="uni2081" unicode="&#x2081;" horiz-adv-x="288" 
d="M152 -12v269h-17v-46h-74v82h44v45h76v-45h46v-305h-75z" />
    <glyph glyph-name="uni2082" unicode="&#x2082;" horiz-adv-x="397" 
d="M106 -13v45h-46v149h46v46h139v66h-110v-47h-75v71h46v46h168v-46h46v-115h-46v-47h-139v-98h110v46h75v-71h-46v-45h-168z" />
    <glyph glyph-name="uni2083" unicode="&#x2083;" horiz-adv-x="397" 
d="M107 -13v46h-47v70h76v-45h108v98h-137v71h137v65h-108v-46h-76v71h47v46h166v-46h47v-115h-47v-20h47v-149h-47v-46h-166z" />
    <glyph glyph-name="uni2084" unicode="&#x2084;" horiz-adv-x="380" 
d="M243 -12v89h-182v127h44v45h47v45h47v45h120v-351h-76zM165 160h78v97h-15v-45h-31l-8 -16h-24v-36z" />
    <glyph glyph-name="uni2085" unicode="&#x2085;" horiz-adv-x="398" 
d="M106 -13v46h-46v70h75v-45h110v52h-93v46h-46v46h-46v116h46v46h168v-46h47v-116h-76v92h-110v-67h47v-45h92v-47h47v-102h-47v-46h-168z" />
    <glyph glyph-name="uni2086" unicode="&#x2086;" horiz-adv-x="398" 
d="M106 -13v46h-46v285h46v46h168v-46h47v-71h-76v47h-110v-67h139v-45h47v-149h-47v-46h-168zM135 58h110v98h-110v-98z" />
    <glyph glyph-name="uni2087" unicode="&#x2087;" horiz-adv-x="380" 
d="M243 -12v269h-108v-45h-74v82h44v45h168v-45h46v-306h-76z" />
    <glyph glyph-name="uni2088" unicode="&#x2088;" horiz-adv-x="380" 
d="M105 -12v45h-44v122l15 3v14l-15 14v108h44v45h168v-45h46v-122l-16 -2v-15l16 -15v-107h-46v-45h-168zM135 70h108v52h-108v-52zM135 204h108v53h-108v-53z" />
    <glyph glyph-name="uni2089" unicode="&#x2089;" horiz-adv-x="398" 
d="M106 -13v46h-46v70h75v-45h110v98h-139v46h-46v116h46v46h168v-46h47v-285h-47v-46h-168zM135 227h110v67h-110v-67z" />
    <glyph glyph-name="colonmonetary" unicode="&#x20a1;" 
d="M158 -68l9 57h-17v86h-89v473h89v88h115l9 57h70l-8 -57h17l9 57h70l-9 -57h23v-88h90v-211h-119v174h-13l-60 -398h73v175h119v-213h-90v-86h-121l-9 -57h-70l8 57h-16l-9 -57h-71zM179 122h9l57 389h-66v-389zM257 113h17l59 398h-18z" />
    <glyph glyph-name="franc" unicode="&#x20a3;" horiz-adv-x="596" 
d="M23 -11v125h37v522h386v-88h90v-124h-120v87h-238v-137h179v-123h-179v-137h44v-125h-199z" />
    <glyph glyph-name="lira" unicode="&#x20a4;" horiz-adv-x="686" 
d="M61 -11v124h89v435h88v88h298v-88h89v-124h-118v87h-239v-89h178v-124h-178v-28h178v-124h-178v-33h239v87h118v-125h-89v-86h-475z" />
    <glyph glyph-name="peseta" unicode="&#x20a7;" horiz-adv-x="1195" 
d="M61 -11v559h89v88h296v-88h90v-297h-90v-88h-267v-174h-118zM179 288h238v223h-238v-223zM653 -11v43h-44v127h-44v81h44v85h74v-85h131v-81h-131v-90h102v43h73v-80h-44v-43h-161zM885 -11v80h89v33h-73v24l-16 6v64h45v44h204v-81h-89v-33h74v-20l15 -10v-64h-44v-43
h-205z" />
    <glyph glyph-name="Euro" unicode="&#x20ac;" 
d="M150 -11v86h-89v473h89v88h296v-88h90v-211h-119v174h-238v-71h180v-125h-180v-20h180v-124h-180v-58h238v175h119v-213h-90v-86h-296z" />
    <glyph glyph-name="uni2116" unicode="&#x2116;" horiz-adv-x="1161" 
d="M61 -11v647h118v-88h88v-87h91v-261h59v436h119v-647h-119v86h-88v88h-91v261h-59v-435h-118zM694 -12v125h335v-125h-335zM713 161v87h-89v298h89v88h298v-88h89v-298h-89v-87h-298zM742 285h239v224h-239v-224z" />
    <glyph glyph-name="trademark" unicode="&#x2122;" horiz-adv-x="797" 
d="M388 286v304h45v46h75v-46h45v-87h17v87h45v46h77v-46h43v-304h-73v268h-18v-88h-45v-135h-75v135h-45v88h-16v-268h-75zM152 286v268h-17v-45h-74v81h44v46h168v-46h44v-81h-74v45h-17v-268h-74z" />
    <glyph glyph-name="uni2126" unicode="&#x2126;" horiz-adv-x="594" 
d="M0 -12v125h59v435h89v87h297v-87h90v-435h58v-125h-177v523h-238v-523h-178z" />
    <glyph glyph-name="uni2153" unicode="&#x2153;" horiz-adv-x="926" 
d="M216 -12v180h78v155h79v77h78v156h80v78h108v-180h-78v-79h-80v-155h-78v-77h-80v-155h-107zM152 290v273h-17v-46h-75v70h46v47h76v-47h47v-297h-77zM651 -13v46h-47v70h77v-45h107v98h-137v71h137v65h-107v-46h-77v71h47v46h166v-46h48v-115h-48v-20h48v-149h-48v-46
h-166z" />
    <glyph glyph-name="uni2154" unicode="&#x2154;" horiz-adv-x="927" 
d="M264 -12v180h79v155h79v77h79v156h79v78h109v-180h-79v-79h-80v-155h-79v-77h-78v-155h-109zM106 288v45h-46v149h46v46h139v66h-110v-47h-75v72h46v45h168v-45h46v-116h-46v-47h-139v-98h110v46h75v-71h-46v-45h-168zM681 -13v46h-48v70h78v-45h107v98h-137v71h137v65
h-107v-46h-78v71h48v46h166v-46h48v-115h-48v-20h48v-149h-48v-46h-166z" />
    <glyph glyph-name="oneeighth" unicode="&#x215b;" horiz-adv-x="917" 
d="M216 -12v180h78v155h79v77h78v156h80v78h108v-180h-78v-79h-80v-155h-78v-77h-80v-155h-107zM152 290v273h-17v-46h-75v70h46v47h76v-47h47v-297h-77zM640 -13v46h-46v142h46v20h-46v116h46v47h169v-47h47v-116h-47v-20h47v-142h-47v-46h-169zM670 58h109v92h-109v-92z
M670 220h109v67h-109v-67z" />
    <glyph glyph-name="threeeighths" unicode="&#x215c;" horiz-adv-x="985" 
d="M284 -12v180h79v155h78v77h80v156h79v78h108v-180h-79v-79h-79v-155h-79v-77h-78v-155h-109zM107 257v47h-47v70h76v-45h108v66h-137v70h137v97h-108v-45h-76v70h47v47h166v-47h47v-148h-47v-19h47v-116h-47v-47h-166zM740 58h108v98h-108v-98zM710 -13v46h-47v149h47v20
h-47v116h47v46h168v-46h47v-116h-47v-20h47v-149h-47v-46h-168zM740 227h108v67h-108v-67z" />
    <glyph glyph-name="fiveeighths" unicode="&#x215d;" horiz-adv-x="1008" 
d="M314 -12v180h78v155h79v77h78v156h81v78h107v-180h-78v-79h-80v-155h-78v-77h-79v-155h-108zM106 263v46h-46v70h75v-45h110v20h-93v46h-46v45h-46v142h46v47h168v-47h47v-142h-76v118h-110v-93h47v-44h92v-47h47v-70h-47v-46h-168zM761 58h111v98h-111v-98zM732 -13v46
h-45v149h45v20h-45v116h45v46h168v-46h48v-116h-48v-20h48v-149h-48v-46h-168zM761 227h111v67h-111v-67z" />
    <glyph glyph-name="seveneighths" unicode="&#x215e;" horiz-adv-x="995" 
d="M331 -11v189h78v152h79v76h77v153h79v77h107v-190h-77v-77h-80v-152h-77v-76h-79v-152h-107zM243 284v270h-108v-45h-74v81h44v46h168v-46h46v-306h-76zM720 -12v45h-45v122l15 5v17l-15 9v108h45v45h167v-45h47v-122l-16 -3v-14l16 -15v-107h-47v-45h-167zM749 70h108
v52h-108v-52zM749 204h108v53h-108v-53z" />
    <glyph glyph-name="uni2206" unicode="&#x2206;" 
d="M61 -11v472h89v87h88v88h120v-88h88v-87h90v-472h-475zM179 114h238v310h-89v87h-60v-87h-89v-310z" />
    <glyph glyph-name="product" unicode="&#x220f;" 
d="M61 -11v647h475v-647h-118v522h-239v-522h-118z" />
    <glyph glyph-name="summation" unicode="&#x2211;" horiz-adv-x="775" 
d="M149 -11v87h-89v124h89v88h178v49h-178v87h-89v125h89v87h564v-124h-535v-51h179v-87h268v-123h-268v-88h-179v-49h535v-125h-564z" />
    <glyph glyph-name="minus" unicode="&#x2212;" horiz-adv-x="600" 
d="M104 242v125h393v-125h-393z" />
    <glyph glyph-name="uni2215" unicode="&#x2215;" horiz-adv-x="542" 
d="M61 -11v189h77v152h79v76h77v153h80v77h107v-190h-78v-77h-80v-152h-77v-76h-79v-152h-106z" />
    <glyph glyph-name="infinity" unicode="&#x221e;" horiz-adv-x="954" 
d="M150 -11v86h-89v299h89v87h296v-87h61v87h297v-87h89v-299h-89v-86h-297v86h-61v-86h-296zM179 113h238v224h-238v-224zM536 113h238v224h-238v-224z" />
    <glyph glyph-name="approxequal" unicode="&#x2248;" horiz-adv-x="600" 
d="M169 293v127h167v-44h21v44h74v-127h-168v45h-21v-45h-73zM169 105v127h167v-44h21v44h74v-127h-168v45h-21v-45h-73z" />
    <glyph glyph-name="notequal" unicode="&#x2260;" horiz-adv-x="600" 
d="M157 11l148 517h120l-149 -517h-119zM104 107v125h393v-125h-393zM104 293v125h393v-125h-393z" />
    <glyph glyph-name="lessequal" unicode="&#x2264;" horiz-adv-x="600" 
d="M383 102v65h-66v64h-66v64h-65v65h-66v101h66v65h65v64h66v65h66v64h96v-101h-67v-64h-66v-66h-65v-64h-66v-27h66v-65h65v-63h66v-65h67v-102h-96zM120 -57v89h360v-89h-360z" />
    <glyph glyph-name="greaterequal" unicode="&#x2265;" horiz-adv-x="600" 
d="M121 102v102h67v65h65v63h67v65h65v27h-65v64h-67v66h-65v64h-67v101h96v-64h66v-65h65v-64h66v-65h67v-101h-67v-65h-66v-64h-65v-64h-66v-65h-96zM120 -57v89h361v-89h-361z" />
    <glyph glyph-name="s_t" unicode="&#xfb06;" horiz-adv-x="1125" 
d="M61 -11v124h356v50h-267v88h-89v123h89v87h439v175h118v-175h268v-124h-268v-224h239v87h118v-125h-89v-86h-297v86h-89v262h-410v-49h267v-88h90v-125h-90v-86h-385z" />
    <glyph glyph-name="i.loclTRK" horiz-adv-x="240" 
d="M61 -11v472h119v-472h-119zM61 515v125h120v-125h-120z" />
    <glyph glyph-name="periodcentered.loclCAT" horiz-adv-x="240" 
d="M61 0v125h118v-125h-118z" />
    <glyph glyph-name="periodcentered.loclCAT.case" horiz-adv-x="240" 
d="M61 0v125h118v-125h-118z" />
    <glyph glyph-name="uni030C.alt" horiz-adv-x="0" 
d="M125 504v61l16 -5v31h-60v125h118v-88h45v-80h-45v-44h-74z" />
    <glyph glyph-name="uni0308.narrow" horiz-adv-x="0" 
d="M6 511v125h119v-125h-119zM168 511v125h118v-125h-118z" />
    </font>
</defs>
</svg>
